<?xml version="1.0" encoding="UTF-8"?>
<svg version="1.1" xmlns="http://www.w3.org/2000/svg" width="1024" height="1024">
<path d="M0 0 C3.26033163 3.0120017 5.34534796 5.00177527 6.08984375 9.46875 C5.45073483 13.30340349 4.44477092 14.83343261 1.58984375 17.46875 C-3.56714332 19.26724924 -8.46100943 19.84530578 -13.84765625 20.28125 C-35.36741396 22.40088855 -52.84728357 31.98503851 -69.41015625 45.46875 C-69.98604492 45.9332959 -70.56193359 46.3978418 -71.15527344 46.87646484 C-79.19723157 53.4625103 -84.43769854 60.43445334 -89.41015625 69.46875 C-90.40597792 71.13791655 -91.40533717 72.80498428 -92.41015625 74.46875 C-74.53196306 68.15828102 -58.95705008 61.91052746 -44.41015625 49.46875 C-43.84941406 49.02917969 -43.28867187 48.58960938 -42.7109375 48.13671875 C-39.02652684 45.24527837 -36.0953316 41.9245719 -33.12109375 38.3359375 C-30.35745861 35.31991559 -28.46599895 33.59803686 -24.34765625 33.09375 C-21.02266804 33.51821658 -20.43308217 33.92285175 -18.41015625 36.46875 C-14.19362382 48.41138377 -21.02191649 64.99510377 -25.7265625 76.01171875 C-36.00989994 97.12715641 -55.51447252 115.44582869 -77.38671875 123.875 C-79.41015625 124.46875 -79.41015625 124.46875 -82.41015625 124.46875 C-82.96703125 126.3559375 -82.96703125 126.3559375 -83.53515625 128.28125 C-92.55597853 155.09197297 -115.68136357 174.95240599 -140.16796875 187.40625 C-148.65878697 191.58367508 -157.37134484 194.68659103 -166.41015625 197.46875 C-166.08015625 197.79875 -165.75015625 198.12875 -165.41015625 198.46875 C-165.11457992 201.14386508 -164.88710715 203.78478716 -164.72265625 206.46875 C-164.6750415 207.2424292 -164.62742676 208.0161084 -164.57836914 208.81323242 C-164.3045891 214.41659717 -164.85002174 219.05416552 -166.41015625 224.46875 C-166.41015625 225.78875 -166.41015625 227.10875 -166.41015625 228.46875 C-161.95515625 230.94375 -161.95515625 230.94375 -157.41015625 233.46875 C-156.91386719 232.22480469 -156.41757813 230.98085938 -155.90625 229.69921875 C-146.82233432 207.27809419 -134.3535376 189.59720016 -112.16015625 178.71875 C-107.42698405 176.72107291 -102.56946079 175.15590399 -97.66015625 173.65625 C-96.95084961 173.43678711 -96.24154297 173.21732422 -95.51074219 172.99121094 C-90.99238174 171.68120386 -87.11270037 171.25331931 -82.41015625 171.46875 C-82.08015625 170.31375 -81.75015625 169.15875 -81.41015625 167.96875 C-72.29517368 140.87936254 -52.92330302 118.22532338 -27.41015625 105.46875 C-7.07251351 96.08214566 17.2567349 93.63946807 38.90234375 99.90625 C42.69924124 100.92834871 42.69924124 100.92834871 45.58984375 98.28125 C47.71339017 95.58489914 47.71339017 95.58489914 48.58984375 92.46875 C48.00976562 92.05625 47.4296875 91.64375 46.83203125 91.21875 C40.37603543 86.44600061 33.53170303 80.62455897 31.58984375 72.46875 C31.03254017 66.46000408 31.05095893 61.59403147 34.58984375 56.46875 C38.11062648 52.63730997 41.35146588 51.71289072 46.38671875 51.37109375 C52.13486421 51.62588743 56.62632144 55.59855079 60.58984375 59.46875 C62.71104101 62.13571044 64.59309695 64.93548279 66.46484375 67.78125 C66.96242188 68.52181641 67.46 69.26238281 67.97265625 70.02539062 C69.18647251 71.83444371 70.3893078 73.6508566 71.58984375 75.46875 C74.99297113 74.40999926 77.60337606 73.45972846 80.58984375 71.46875 C77.60259696 54.79224767 68.03482605 34.60859799 55.8515625 22.78125 C54.58984375 21.46875 54.58984375 21.46875 54.58984375 19.46875 C53.92984375 19.46875 53.26984375 19.46875 52.58984375 19.46875 C52.58984375 18.80875 52.58984375 18.14875 52.58984375 17.46875 C51.92984375 17.46875 51.26984375 17.46875 50.58984375 17.46875 C50.58984375 16.80875 50.58984375 16.14875 50.58984375 15.46875 C50.03554688 15.21222656 49.48125 14.95570313 48.91015625 14.69140625 C46.25676782 13.29324029 43.90422448 11.65022518 41.46484375 9.90625 C38.13892627 7.50143334 38.13892627 7.50143334 34.58984375 5.46875 C34.91984375 3.81875 35.24984375 2.16875 35.58984375 0.46875 C41.59402765 -1.51440869 47.27289553 1.31758027 52.6875 4.0078125 C55.34668187 5.45577992 57.97925419 6.93515271 60.58984375 8.46875 C60.58984375 9.12875 60.58984375 9.78875 60.58984375 10.46875 C61.14285156 10.69175781 61.69585937 10.91476563 62.265625 11.14453125 C77.66137931 19.91622993 85.5699802 40.86089721 91.73730469 56.3515625 C92.97022959 59.41339661 94.27702745 62.44041302 95.58984375 65.46875 C96.85699219 65.11941406 98.12414062 64.77007812 99.4296875 64.41015625 C101.12881193 63.95017229 102.82803607 63.49055654 104.52734375 63.03125 C105.35814453 62.80115234 106.18894531 62.57105469 107.04492188 62.33398438 C126.06371816 57.22777059 147.19557054 58.31542153 165.58984375 65.46875 C165.96109375 64.458125 166.33234375 63.4475 166.71484375 62.40625 C167.33904072 60.76011194 167.96419083 59.11433524 168.58984375 57.46875 C169.00363281 56.35371094 169.41742187 55.23867187 169.84375 54.08984375 C177.84555255 32.95745357 190.97163974 11.91227947 211.75390625 1.37109375 C217.1497424 -0.86849075 222.03933486 -1.38141963 227.58984375 0.46875 C227.48828125 2.6796875 227.48828125 2.6796875 226.58984375 5.46875 C224.4830457 7.20760022 222.50047705 8.63670358 220.21484375 10.09375 C199.96292674 23.8859148 187.63448433 45.23456273 180.58984375 68.46875 C180.58984375 69.12875 180.58984375 69.78875 180.58984375 70.46875 C184.21984375 72.44875 187.84984375 74.42875 191.58984375 76.46875 C191.91984375 74.81875 192.24984375 73.16875 192.58984375 71.46875 C196.34328758 63.99537523 201.37714014 56.89739701 208.58984375 52.46875 C213.49016782 50.92166883 217.208818 50.96655882 222.02734375 52.71875 C226.57390559 55.82371906 228.38245095 57.93486632 229.58984375 63.46875 C229.73635122 72.21524577 227.27031218 78.8756306 221.27734375 85.21875 C217.99733429 88.32126977 214.60198073 90.42174134 210.58984375 92.46875 C212.05262368 95.88190316 213.46785555 98.38742453 216.58984375 100.46875 C218.48445133 100.26706444 218.48445133 100.26706444 220.55859375 99.6484375 C246.62964596 93.25162802 272.54117783 96.82011603 295.58984375 110.46875 C299.78142581 113.22025837 303.70468773 116.30350804 307.58984375 119.46875 C308.45867188 120.14679688 309.3275 120.82484375 310.22265625 121.5234375 C320.95928281 130.34660586 333.80257665 147.40094901 337.49609375 160.7421875 C338.48658873 164.26869118 339.27933414 166.60747938 341.58984375 169.46875 C346.50481858 171.75494164 352.07122598 172.23883764 357.37939453 173.05908203 C371.62999987 175.70018163 385.89541142 186.04723524 395.58984375 196.46875 C396.26789062 197.16484375 396.9459375 197.8609375 397.64453125 198.578125 C405.93420519 207.34229207 415.25042606 219.67994379 415.6875 232.28515625 C415.65527344 233.00574219 415.62304688 233.72632813 415.58984375 234.46875 C417.19456103 233.51133894 418.79859704 232.55278595 420.40234375 231.59375 C421.29566406 231.06007813 422.18898438 230.52640625 423.109375 229.9765625 C424.96279099 228.84991908 426.78514292 227.67188389 428.58984375 226.46875 C428.36167969 225.79972656 428.13351562 225.13070312 427.8984375 224.44140625 C425.12897871 215.18917846 425.65905083 206.93368043 426.58984375 197.46875 C425.47609375 197.1284375 424.36234375 196.788125 423.21484375 196.4375 C394.04217422 187.28781679 366.25511046 169.52986944 350.58984375 142.46875 C349.62009006 140.25694483 348.75937401 138.01970626 347.89648438 135.7644043 C345.24134318 128.94233224 343.07780869 124.98495104 336.2199707 121.90136719 C333.85513514 120.9747417 331.47780066 120.09558833 329.08984375 119.23046875 C322.64591267 116.88044085 317.81820513 112.85923296 312.58984375 108.46875 C311.90921875 107.93765625 311.22859375 107.4065625 310.52734375 106.859375 C309.16626936 105.78815904 307.86663795 104.63914468 306.58984375 103.46875 C306.58984375 102.80875 306.58984375 102.14875 306.58984375 101.46875 C305.59984375 101.13875 304.60984375 100.80875 303.58984375 100.46875 C287.49569813 83.76795144 278.74216268 60.867237 277.99609375 37.89453125 C278.58984375 35.46875 278.58984375 35.46875 280.62109375 33.44921875 C284.11542862 32.29516868 286.10555994 32.69104852 289.45263672 34.16357422 C293.67458287 36.74188403 296.8185353 40.42359039 300.15234375 44.03125 C313.47433324 57.80705649 326.68490578 64.93880349 344.58984375 71.46875 C346.12299811 72.04135873 347.6555931 72.6154685 349.1875 73.19140625 C350.87166016 73.82369141 350.87166016 73.82369141 352.58984375 74.46875 C347.82413077 65.45674781 342.91819434 57.68151146 335.58984375 50.46875 C335.13061523 50.01371094 334.67138672 49.55867188 334.19824219 49.08984375 C327.57484849 42.58606987 320.72732895 37.01060221 312.58984375 32.46875 C312.00750977 32.13746094 311.42517578 31.80617187 310.82519531 31.46484375 C297.25512073 23.83915124 284.10042684 20.45679897 268.5625 19.671875 C264.16081282 19.37110268 260.49632652 18.67618909 256.71484375 16.28125 C254.72858308 13.08116337 254.40557848 11.27689882 254.58984375 7.46875 C259.15810737 -0.3957757 266.44120048 -4.16762894 274.58984375 -7.53125 C275.34136719 -7.84835938 276.09289062 -8.16546875 276.8671875 -8.4921875 C304.97831797 -19.06657922 339.55817411 -11.14077106 365.92529297 0.72607422 C386.30818109 10.25741713 407.26023032 24.42680726 418.58984375 44.46875 C418.88246094 45.35433594 419.17507813 46.23992187 419.4765625 47.15234375 C420.36677425 49.62975937 420.36677425 49.62975937 422.65625 50.4375 C423.89181641 50.70046875 423.89181641 50.70046875 425.15234375 50.96875 C435.97742767 53.7567932 444.95244729 60.45879762 452.58984375 68.46875 C453.22277344 69.05785156 453.85570312 69.64695312 454.5078125 70.25390625 C476.65434106 91.22451294 493.2424943 123.94694749 495.58984375 154.46875 C495.59965957 157.80612744 495.46495441 161.13410755 495.33984375 164.46875 C495.12103925 171.58591501 495.88314987 175.23430824 500.640625 180.7734375 C511.53657312 195.83997898 512.63883916 220.60011838 509.83984375 238.34375 C507.47905508 249.21965917 502.89904595 258.76598754 493.77734375 265.53125 C490.58984375 267.46875 490.58984375 267.46875 488.58984375 267.46875 C488.79609375 268.5825 489.00234375 269.69625 489.21484375 270.84375 C490.6134392 282.96491057 484.37613254 294.78721582 477.21484375 304.21875 C476.02126441 305.64786939 474.81234103 307.06428772 473.58984375 308.46875 C472.92339844 309.27828125 472.25695312 310.0878125 471.5703125 310.921875 C467.35480424 315.87414777 463.48814679 319.17588915 457.90234375 322.53125 C453.99759002 325.18121753 453.99759002 325.18121753 452.25732422 329.35839844 C452.29171934 333.84644044 453.22043682 338.17121975 454.19140625 342.53759766 C458.51458369 363.49123339 448.45887079 388.09212817 437.58984375 405.46875 C434.23803037 410.39670669 430.50193204 414.97852765 426.58984375 419.46875 C425.73519531 420.45101563 424.88054688 421.43328125 424 422.4453125 C420.94931353 425.87671673 417.86234519 429.2473814 414.58984375 432.46875 C415.75 432.30117188 416.91015625 432.13359375 418.10546875 431.9609375 C439.16620968 429.1258812 439.16620968 429.1258812 446.453125 433.6171875 C447.5476187 434.47919924 448.62979144 435.35708011 449.69921875 436.25 C452.16720288 437.84093192 454.47480551 438.28916484 457.33984375 438.90625 C473.99751269 442.70899328 488.28823778 456.22382803 498.58984375 469.46875 C498.58984375 470.12875 498.58984375 470.78875 498.58984375 471.46875 C499.1209375 471.67113281 499.65203125 471.87351562 500.19921875 472.08203125 C503.6320129 474.07327622 506.09882795 476.81340572 508.83984375 479.65625 C512.43168601 483.32021962 515.99894772 486.94435081 519.90234375 490.28125 C531.92390677 500.61778222 543.04564716 512.98001155 544.77734375 529.34375 C544.85919922 529.99988281 544.94105469 530.65601563 545.02539062 531.33203125 C547.90360807 556.14758668 542.6460731 590.10403566 527.58984375 610.46875 C524.81625303 612.35309789 523.93577855 612.49698958 520.52734375 612.21875 C517.58984375 611.46875 517.58984375 611.46875 514.58984375 609.46875 C514.58984375 608.80875 514.58984375 608.14875 514.58984375 607.46875 C513.92984375 607.46875 513.26984375 607.46875 512.58984375 607.46875 C510.65643293 600.14561884 510.28113185 593.32402017 510.24609375 585.76953125 C510.23147095 584.57571335 510.21684814 583.38189545 510.20178223 582.15190125 C510.13986013 577.07655159 510.09988483 572.00108616 510.05810547 566.92553711 C510.0243393 563.20674038 509.97925262 559.48819791 509.93359375 555.76953125 C509.92831665 554.62567459 509.92303955 553.48181793 509.91760254 552.30329895 C509.89207661 544.67137808 509.89207661 544.67137808 507.58984375 537.46875 C504.95982015 535.55153732 504.95982015 535.55153732 501.71484375 534.15625 C496.72381377 531.66351708 492.23523032 529.01081302 487.77734375 525.65625 C486.78089844 524.90730469 485.78445313 524.15835938 484.7578125 523.38671875 C483.68466797 522.43732422 483.68466797 522.43732422 482.58984375 521.46875 C482.58984375 520.80875 482.58984375 520.14875 482.58984375 519.46875 C482.03683594 519.23027344 481.48382812 518.99179687 480.9140625 518.74609375 C471.78317323 513.72794116 464.87497716 504.53640743 458.58984375 496.46875 C457.21535849 494.78083071 455.84037259 493.09331896 454.46484375 491.40625 C450.60956819 486.58328479 447.06381871 481.57115073 443.58984375 476.46875 C439.81184679 477.09841616 436.60894273 478.22407893 433.08984375 479.71875 C409.08323114 488.97240024 381.9709295 491.93973891 356.58984375 495.46875 C357.43160156 495.45714844 358.27335938 495.44554687 359.140625 495.43359375 C409.54778891 495.06718654 409.54778891 495.06718654 420.58984375 503.46875 C421.51796875 504.891875 421.51796875 504.891875 422.46484375 506.34375 C425.39359809 510.65074167 429.22473949 512.74744176 433.58984375 515.46875 C442.8103034 521.6157231 447.43793611 532.68771194 451.96484375 542.40625 C452.52647217 543.5919458 453.08810059 544.7776416 453.66674805 545.99926758 C455.31623604 549.48518711 456.95413042 552.97635045 458.58984375 556.46875 C459.82521121 559.0899088 461.06296118 561.70992174 462.30200195 564.3293457 C463.02997756 565.86880332 463.75640244 567.40899529 464.48120117 568.94995117 C466.50503325 573.23905001 468.59717168 577.48475893 470.75244141 581.70922852 C480.05954708 599.95762937 485.29758645 614.01600533 479.58984375 634.46875 C472.06891248 656.88691053 457.61888194 685.45423091 435.58984375 696.46875 C430.32095667 697.0292699 430.32095667 697.0292699 427.71484375 695.03125 C424.8548955 688.51692344 426.87687755 681.01311569 428.6015625 674.40234375 C428.91671562 673.14660301 428.91671562 673.14660301 429.23823547 671.86549377 C429.68302943 670.10201051 430.13291175 668.33980353 430.58764648 666.57885742 C431.26859995 663.94013263 431.93353491 661.29779077 432.59570312 658.65429688 C434.95964896 649.30467581 437.54831757 640.08804869 440.58520508 630.93383789 C441.59705013 627.44389454 442.16404622 624.07318227 442.58984375 620.46875 C442.038125 620.27667969 441.48640625 620.08460938 440.91796875 619.88671875 C437.56879508 617.84686968 435.58931061 614.91687047 433.33984375 611.78125 C432.85604248 611.10916504 432.37224121 610.43708008 431.8737793 609.74462891 C420.8184302 594.06626688 405.58984375 566.94001041 405.58984375 547.46875 C403.62724609 547.55576172 403.62724609 547.55576172 401.625 547.64453125 C383.32496506 548.15624142 365.39760043 546.23705197 347.22680664 544.24731445 C346.17576248 544.1325325 345.12471832 544.01775055 344.04182434 543.89949036 C342.05277677 543.68053838 340.0641286 543.45791584 338.07597351 543.23100281 C333.55355842 542.72668528 329.14979148 542.33613831 324.58984375 542.46875 C325.76619385 542.81486328 325.76619385 542.81486328 326.96630859 543.16796875 C353.39104253 550.99981258 353.39104253 550.99981258 363.96484375 555.65625 C364.6511084 555.95208984 365.33737305 556.24792969 366.04443359 556.55273438 C373.48959178 559.98637176 378.60326422 564.49581841 382.27734375 571.90625 C382.85226562 573.04191406 383.4271875 574.17757812 384.01953125 575.34765625 C384.53773438 576.37761719 385.0559375 577.40757812 385.58984375 578.46875 C386.34878698 579.76743856 387.11692527 581.06089981 387.90234375 582.34375 C396.13999397 597.59865781 390.47557112 617.49625036 387.77734375 633.59375 C387.23644697 636.88434725 386.69921536 640.17551841 386.16360474 643.46697998 C385.81119162 645.63114058 385.45645386 647.79492398 385.09933472 649.95831299 C384.24243622 655.19938164 383.44221341 660.43863839 382.76416016 665.70605469 C382.63648758 666.69765594 382.508815 667.6892572 382.37727356 668.71090698 C382.14474102 670.55949207 381.92063765 672.4091675 381.70707703 674.26004028 C380.66571627 682.60010042 378.55073506 689.35501532 372.58984375 695.46875 C371.92984375 695.46875 371.26984375 695.46875 370.58984375 695.46875 C370.58984375 696.12875 370.58984375 696.78875 370.58984375 697.46875 C368.65081288 699.21111213 366.71205062 700.81612216 364.65234375 702.40625 C364.02046143 702.89424072 363.3885791 703.38223145 362.73754883 703.88500977 C346.00289428 716.61838777 321.52535261 735.23774265 299.58984375 733.46875 C296.67673891 732.20218268 295.12399278 731.17285554 293.21484375 728.65625 C292.27674882 725.37291776 292.53235661 723.76562166 293.58984375 720.46875 C295.68861763 717.2628729 297.93068534 714.23230955 300.58984375 711.46875 C301.24984375 711.46875 301.90984375 711.46875 302.58984375 711.46875 C302.83734375 710.89125 303.08484375 710.31375 303.33984375 709.71875 C304.77284363 707.13935021 306.37409051 705.40753408 308.58984375 703.46875 C309.24984375 703.46875 309.90984375 703.46875 310.58984375 703.46875 C310.91984375 702.47875 311.24984375 701.48875 311.58984375 700.46875 C312.24984375 700.46875 312.90984375 700.46875 313.58984375 700.46875 C313.58984375 699.80875 313.58984375 699.14875 313.58984375 698.46875 C314.91796875 697.09375 314.91796875 697.09375 316.83984375 695.46875 C317.56300781 694.85515625 318.28617188 694.2415625 319.03125 693.609375 C319.87558594 692.90296875 320.71992187 692.1965625 321.58984375 691.46875 C322.58886719 690.61796875 323.58789062 689.7671875 324.6171875 688.890625 C336.93049608 678.46875 336.93049608 678.46875 340.58984375 678.46875 C340.38488281 677.77910156 340.17992187 677.08945312 339.96875 676.37890625 C339.56462891 674.96931641 339.56462891 674.96931641 339.15234375 673.53125 C338.75208984 672.15646484 338.75208984 672.15646484 338.34375 670.75390625 C333.22235359 648.43735507 337.85232265 626.10823314 343.58984375 604.46875 C335.03752944 600.39555284 326.47414635 596.75492412 317.58984375 593.46875 C317.43128906 594.2421875 317.27273438 595.015625 317.109375 595.8125 C315.58697364 602.60863423 313.73864116 607.87575097 309.58984375 613.46875 C309.03296875 614.314375 308.47609375 615.16 307.90234375 616.03125 C297.35273459 627.15110831 283.07542962 630.17965824 268.21484375 630.8046875 C266.34003987 630.83476993 264.46488628 630.84692212 262.58984375 630.84375 C261.54586426 630.84213867 260.50188477 630.84052734 259.42626953 630.83886719 C238.39787545 630.53002684 216.97946334 627.72480974 196.37646484 623.60058594 C190.78725446 622.50795834 187.06321817 621.91578903 182.0390625 625.0703125 C181.12769531 625.73804688 180.21632813 626.40578125 179.27734375 627.09375 C159.97798873 640.29981971 137.31841776 644.84294466 114.33666992 640.92797852 C102.48933694 638.65363204 89.33895013 632.99230605 80.00862122 625.13760376 C76.70884579 622.39482391 75.25340037 621.4554273 70.8203125 621.54443359 C69.4661485 621.83117631 68.11827005 622.14882442 66.77734375 622.4921875 C65.27146791 622.81772802 63.76493094 623.14022246 62.2578125 623.45996094 C61.48743652 623.6315271 60.71706055 623.80309326 59.92333984 623.9798584 C56.16993424 624.76623575 52.38700302 625.29390505 48.58984375 625.8203125 C47.84831055 625.92599548 47.10677734 626.03167847 46.34277344 626.14056396 C44.84477052 626.35395458 43.34655983 626.5658918 41.84814453 626.77636719 C39.56234562 627.0976146 37.27724071 627.42349442 34.9921875 627.75 C30.86006232 628.33810257 26.72570478 628.90751112 22.58984375 629.46875 C21.30122437 629.64760742 21.30122437 629.64760742 19.98657227 629.83007812 C0.67523272 632.27672385 -23.93463643 633.39388816 -40.41015625 621.46875 C-48.47498905 615.01688376 -54.74159362 606.55125593 -56.06640625 596.09765625 C-56.17984375 594.90011719 -56.29328125 593.70257812 -56.41015625 592.46875 C-59.66129533 593.75756244 -62.91086066 595.05029762 -66.16015625 596.34375 C-67.08054687 596.70855469 -68.0009375 597.07335937 -68.94921875 597.44921875 C-69.83867187 597.80371094 -70.728125 598.15820312 -71.64453125 598.5234375 C-72.86994629 599.01046143 -72.86994629 599.01046143 -74.12011719 599.50732422 C-76.40590438 600.420545 -76.40590438 600.420545 -78.45800781 601.59033203 C-80.41015625 602.46875 -80.41015625 602.46875 -84.41015625 602.46875 C-84.08402344 603.44972656 -83.75789062 604.43070313 -83.421875 605.44140625 C-75.93939116 628.38444343 -70.83155422 655.03979488 -79.41015625 678.46875 C-78.72953125 678.67757812 -78.04890625 678.88640625 -77.34765625 679.1015625 C-73.43839133 680.9210342 -70.60772259 683.48579582 -67.41015625 686.34375 C-66.75515137 686.92165283 -66.10014648 687.49955566 -65.42529297 688.0949707 C-63.41248495 689.87773658 -61.41020159 691.67168693 -59.41015625 693.46875 C-58.80977539 694.0045166 -58.20939453 694.5402832 -57.59082031 695.09228516 C-50.42168032 701.50497397 -43.57923773 708.06319314 -37.41015625 715.46875 C-36.93578125 716.03207031 -36.46140625 716.59539063 -35.97265625 717.17578125 C-33.98900992 719.78620472 -33.35458433 721.78550992 -32.78515625 725.03125 C-33.46540775 728.77263326 -34.45604263 730.39073213 -37.59375 732.58203125 C-41.96133753 734.71416538 -45.61273422 733.97213359 -50.07421875 732.72265625 C-70.02677114 725.68512808 -89.01709157 714.07551261 -105.10546875 700.421875 C-106.46507926 699.26966271 -107.84802664 698.14263733 -109.27734375 697.078125 C-116.63099355 691.59032665 -119.13717956 682.17287566 -120.42382812 673.456604 C-120.52888672 672.70779968 -120.63394531 671.95899536 -120.7421875 671.1875 C-120.85908936 670.38890564 -120.97599121 669.59031128 -121.09643555 668.76751709 C-121.34663473 667.05615632 -121.59450272 665.34445338 -121.84024048 663.63244629 C-122.48762992 659.12309028 -123.15139905 654.61616191 -123.81640625 650.109375 C-124.01602715 648.75413727 -124.01602715 648.75413727 -124.21968079 647.371521 C-125.6184885 637.94361976 -127.19617696 628.54867212 -128.84887695 619.16210938 C-133.60188207 591.62304986 -133.60188207 591.62304986 -125.890625 580.6328125 C-124.08008257 577.98626762 -122.58479814 575.21301712 -121.03515625 572.40625 C-113.16808985 559.0423231 -101.94595293 555.08443914 -87.97265625 549.84375 C-87.23499023 549.56660156 -86.49732422 549.28945313 -85.73730469 549.00390625 C-78.73671265 546.45163857 -71.58619096 544.45955823 -64.41015625 542.46875 C-65.07318253 542.53139038 -65.7362088 542.59403076 -66.41932678 542.65856934 C-73.44499025 543.32018243 -80.47194407 543.96660172 -87.49975586 544.60498047 C-90.10752277 544.84375468 -92.71496124 545.08614928 -95.32202148 545.33251953 C-111.73756816 546.88085791 -127.91977361 547.83302181 -144.41015625 547.46875 C-144.54030121 548.06990128 -144.67044617 548.67105255 -144.80453491 549.29042053 C-144.9790921 550.08798264 -145.15364929 550.88554474 -145.33349609 551.70727539 C-145.50489105 552.49405167 -145.67628601 553.28082794 -145.85287476 554.09144592 C-150.97806213 575.95495471 -161.89852501 604.65249591 -179.703125 619.36328125 C-181.72660231 621.38388063 -181.72660231 621.38388063 -181.2890625 624.296875 C-180.36637867 627.62673843 -179.39044562 630.92424257 -178.34765625 634.21875 C-175.53166987 643.42676673 -173.35610961 652.78596039 -171.16015625 662.15625 C-170.98185272 662.91425903 -170.80354919 663.67226807 -170.61984253 664.45324707 C-165.45134349 686.46941689 -165.45134349 686.46941689 -166.41015625 693.46875 C-167.97265625 695.59375 -167.97265625 695.59375 -170.41015625 696.46875 C-174.56733471 696.80132428 -176.40156922 696.20849181 -179.76953125 693.73828125 C-201.50595822 674.66827933 -217.52181806 648.3584206 -221.41015625 619.46875 C-221.53648437 618.61410156 -221.6628125 617.75945313 -221.79296875 616.87890625 C-222.71110021 604.88331917 -215.06835156 592.41575168 -209.7421875 582.046875 C-206.89815659 576.50082787 -204.17941761 570.89532088 -201.47265625 565.28125 C-200.95856201 564.21575928 -200.44446777 563.15026855 -199.91479492 562.05249023 C-196.6102584 555.14186452 -193.54119799 548.16452392 -190.59765625 541.09375 C-184.75510031 527.19343265 -178.41988887 517.49452173 -165.265625 509.78515625 C-163.24748555 508.35333942 -162.0656411 506.8873986 -160.59765625 504.90625 C-155.80634456 498.88101146 -147.70430658 497.47546502 -140.41015625 496.46875 C-137.15374961 496.27938222 -133.89775931 496.21373636 -130.63671875 496.15234375 C-129.71297455 496.13156265 -128.78923035 496.11078156 -127.8374939 496.08937073 C-124.90345281 496.02428881 -121.96932663 495.96518357 -119.03515625 495.90625 C-117.0390539 495.8630254 -115.04295998 495.81940988 -113.046875 495.77539062 C-108.16805469 495.6686501 -103.28914926 495.56726752 -98.41015625 495.46875 C-99.78844604 495.24324463 -99.78844604 495.24324463 -101.19458008 495.01318359 C-164.61682597 484.56846693 -164.61682597 484.56846693 -177.5390625 477.265625 C-179.98804797 476.22263328 -180.94025417 476.53333532 -183.41015625 477.46875 C-185.04131912 479.10995902 -185.04131912 479.10995902 -186.44140625 481.23046875 C-186.99836182 482.01284912 -187.55531738 482.79522949 -188.12915039 483.60131836 C-189.01074829 484.86600952 -189.01074829 484.86600952 -189.91015625 486.15625 C-204.61972815 506.63766538 -221.28861574 526.05083735 -245.14453125 535.88671875 C-247.63089132 537.25891935 -247.63089132 537.25891935 -248.03637695 539.85791016 C-248.55305594 544.84921137 -248.60639702 549.80907673 -248.65625 554.82421875 C-248.68919826 557.07877978 -248.72240974 559.33333698 -248.75585938 561.58789062 C-248.80313289 565.1182179 -248.84757012 568.64853075 -248.88696289 572.17895508 C-248.92699219 575.60253884 -248.97846573 579.02581105 -249.03125 582.44921875 C-249.03966415 583.48918503 -249.04807831 584.52915131 -249.05674744 585.60063171 C-249.37033036 604.45972682 -249.37033036 604.45972682 -254.41015625 610.46875 C-257.06515349 612.55481926 -258.47766129 612.46754455 -261.91015625 612.40625 C-266.27372111 611.23743798 -267.06769756 610.29476586 -269.41015625 606.46875 C-273.31145595 599.43845548 -275.92419488 592.40110166 -278.03515625 584.65625 C-278.33365479 583.57037598 -278.63215332 582.48450195 -278.93969727 581.36572266 C-284.92805679 558.8110495 -289.15122936 531.85400439 -277.390625 510.39453125 C-273.39026167 504.48472427 -268.43222158 499.50904424 -263.41015625 494.46875 C-262.35474932 493.38872339 -261.30005431 492.30800061 -260.24609375 491.2265625 C-255.42648058 486.3145267 -250.50610747 481.57978075 -245.2734375 477.10546875 C-240.47704976 472.89228958 -236.07849381 468.29872845 -231.91015625 463.46875 C-222.2019398 452.27033329 -211.376084 442.65169708 -196.72265625 438.96875 C-192.37014455 437.87011601 -189.76601843 436.52850669 -186.41015625 433.46875 C-178.98071281 429.54765485 -170.39675637 430.40089304 -162.34765625 431.40625 C-161.48205078 431.50615234 -160.61644531 431.60605469 -159.72460938 431.70898438 C-157.6187367 431.95331214 -155.51427461 432.20974866 -153.41015625 432.46875 C-153.88324219 432.01886719 -154.35632813 431.56898438 -154.84375 431.10546875 C-173.25329207 413.19833133 -185.06084349 393.17853144 -191.41015625 368.46875 C-191.67828125 367.46199219 -191.94640625 366.45523437 -192.22265625 365.41796875 C-195.01254871 352.96032395 -194.17333713 338.8290502 -191.41015625 326.46875 C-192.10496094 326.2521875 -192.79976563 326.035625 -193.515625 325.8125 C-197.16587264 324.1179181 -199.83103253 321.70358611 -202.72265625 318.96875 C-203.29588623 318.42903564 -203.86911621 317.88932129 -204.4597168 317.33325195 C-214.76390951 307.47068825 -226.80734485 292.72926688 -227.60546875 277.8203125 C-227.58226562 276.59054687 -227.5590625 275.36078125 -227.53515625 274.09375 C-227.51710937 272.84851563 -227.4990625 271.60328125 -227.48046875 270.3203125 C-227.45726562 269.37929688 -227.4340625 268.43828125 -227.41015625 267.46875 C-228.14105469 267.22382813 -228.87195313 266.97890625 -229.625 266.7265625 C-236.30888324 263.70803458 -241.74027681 257.23727392 -244.640625 250.5625 C-252.24136657 229.88230974 -251.23787975 205.74099267 -242.8828125 185.3515625 C-241.37526428 182.40044688 -239.59431387 179.98175825 -237.59765625 177.34375 C-233.68465355 171.54981896 -234.05238896 166.71366058 -234.3215332 160.00366211 C-235.44047821 126.98672296 -216.1061248 94.93798822 -194.66796875 71.43359375 C-186.05877945 62.26897289 -176.23666193 55.00436329 -164.41015625 50.46875 C-163.42015625 50.46875 -162.43015625 50.46875 -161.41015625 50.46875 C-161.16910156 49.76621094 -160.92804688 49.06367188 -160.6796875 48.33984375 C-158.23553431 42.81229731 -154.10871685 38.21480504 -150.41015625 33.46875 C-149.9409375 32.85257813 -149.47171875 32.23640625 -148.98828125 31.6015625 C-130.50042564 8.17517011 -99.62789867 -4.2821763 -71.41015625 -10.53125 C-70.31960938 -10.77746094 -69.2290625 -11.02367187 -68.10546875 -11.27734375 C-46.8240049 -15.28489214 -17.40228256 -14.42218766 0 0 Z " fill="#D48A50" transform="translate(381.41015625,160.53125)"/>
<path d="M0 0 C4.71953138 3.59988279 9.08238348 7.54938401 13.38671875 11.6328125 C15.9373166 14.09497303 15.9373166 14.09497303 18.3059082 15.26806641 C20.78415818 16.69221049 22.41714965 17.86915642 24.1875 20.125 C25.08146989 24.86906579 24.50169684 29.48744595 24 34.25 C23.87400633 35.73231013 23.75139746 37.2149111 23.63183594 38.69775391 C23.35540601 42.00653634 23.04926271 45.31098479 22.72314453 48.61523438 C22.24377905 53.47898664 21.81490576 58.34602728 21.39562988 63.21528625 C19.27533242 87.73906252 16.61348324 112.14727398 13.06738281 136.50732422 C12.87904625 137.81274925 12.87904625 137.81274925 12.68690491 139.14454651 C12.45436639 140.74742747 12.21733285 142.34966655 11.97459412 143.95103455 C11.32676957 148.39511657 11.08005313 152.63327757 11.1875 157.125 C12.60288717 157.46372513 14.01987963 157.79574624 15.4375 158.125 C16.22640625 158.310625 17.0153125 158.49625 17.828125 158.6875 C20.44306002 159.24654828 20.44306002 159.24654828 24.1875 159.125 C25.54509154 151.34589003 26.69205128 143.57547166 27.58984375 135.73046875 C27.71225937 134.67655945 27.83467499 133.62265015 27.96080017 132.5368042 C28.35393408 129.12925873 28.74066321 125.7210485 29.125 122.3125 C29.32334442 120.55548264 29.32334442 120.55548264 29.5256958 118.76296997 C37.42541264 70.79196381 37.42541264 70.79196381 34.1875 23.125 C58.18885026 17.84029902 80.66033842 18.33376214 102.1875 31.125 C105.42807901 33.24311759 108.32401511 35.52386168 111.1875 38.125 C111.92097656 38.76695312 112.65445312 39.40890625 113.41015625 40.0703125 C120.02309019 46.21818591 124.72261839 53.36024304 129.1875 61.125 C129.57421875 61.7957959 129.9609375 62.4665918 130.359375 63.15771484 C131.5220721 65.21423533 132.64284294 67.28811948 133.75 69.375 C134.09683838 69.99963135 134.44367676 70.6242627 134.80102539 71.26782227 C139.45177705 80.40846178 136.97574904 89.66625617 134.4375 99.125 C134.13166992 100.2792749 133.82583984 101.4335498 133.51074219 102.62280273 C124.24827072 136.39950121 110.17272985 168.5530377 95.1875 200.125 C94.78216034 200.97904419 94.37682068 201.83308838 93.959198 202.7130127 C86.21703291 218.99534704 78.2279257 235.14467227 70.125 251.25 C63.25281498 264.90939086 56.43981635 278.58674525 49.87303162 292.39602661 C46.72507847 299.01543248 43.50242171 305.58737346 40.1875 312.125 C32.53536879 327.33016106 25.24896517 342.70488177 18.03637695 358.12231445 C15.80531804 362.86926051 13.48624686 367.56661479 11.125 372.25 C0.85836595 390.35879093 0.85836595 390.35879093 -2.8125 410.125 C-1.4925 410.455 -0.1725 410.785 1.1875 411.125 C9.58772413 399.49593972 16.79919986 387.21415138 23.875 374.75 C24.57024198 373.52888486 25.26563872 372.30785782 25.96118164 371.08691406 C28.04032179 367.43503909 30.11472342 363.78048991 32.1875 360.125 C32.79916016 359.04637695 33.41082031 357.96775391 34.04101562 356.85644531 C37.30132427 351.1028528 40.55354348 345.34474944 43.80029297 339.58349609 C45.04184586 337.38313749 46.28743946 335.18514825 47.53515625 332.98828125 C54.25958613 321.12864047 60.73770585 309.13574016 67.1875 297.125 C67.61643555 296.32787598 68.04537109 295.53075195 68.48730469 294.70947266 C81.60835443 270.26735338 93.85543897 245.33785072 105.30407715 220.07220459 C106.24205051 218.004762 107.18384796 215.93908727 108.12597656 213.87353516 C117.23220444 193.8821123 125.82898173 173.83688234 133.1875 153.125 C133.59049316 151.99304199 133.99348633 150.86108398 134.40869141 149.69482422 C141.38340458 129.90722086 147.29883032 109.75999107 151.1875 89.125 C167.90699301 90.96607093 183.48190049 100.44037826 195.1875 112.125 C196.04988281 112.96998047 196.04988281 112.96998047 196.9296875 113.83203125 C210.04083313 127.79234434 212.06578811 147.47463079 212.14135742 165.69360352 C211.71946226 178.84608274 207.19152666 188.23887951 200.1875 199.125 C199.24276176 200.66933296 198.29998668 202.21486895 197.359375 203.76171875 C194.75390244 207.96720561 192.00774211 212.06114559 189.1875 216.125 C188.56343262 217.02822998 188.56343262 217.02822998 187.92675781 217.94970703 C181.27322099 227.52900608 174.2331068 236.83248077 167.1875 246.125 C166.54578857 246.97360596 166.54578857 246.97360596 165.89111328 247.83935547 C159.34462114 256.48404898 152.54853372 264.91074106 145.68017578 273.30029297 C144.36563798 274.90723696 143.05551698 276.51779191 141.74609375 278.12890625 C138.27720225 282.39210565 134.77440779 286.6207245 131.20751953 290.80200195 C126.43513472 296.39706773 121.82528182 302.08712623 117.31298828 307.89379883 C114.19643667 311.88712259 110.98216651 315.77771371 107.6875 319.625 C103.47635372 324.54645113 99.43187029 329.57296403 95.453125 334.68359375 C91.92213544 339.21203799 88.31944742 343.67722679 84.6875 348.125 C80.63758576 353.0872445 76.62944641 358.07654232 72.6875 363.125 C68.74554433 368.17346954 64.73690235 373.16232819 60.6875 378.125 C36.86794399 405.96038604 36.86794399 405.96038604 18.1875 437.125 C33.96883101 433.64775757 47.44195527 416.85520304 57.546875 404.984375 C59.34897789 402.94199172 61.24688947 401.03598289 63.1875 399.125 C66.35839998 395.99654036 69.3131996 392.75644648 72.21484375 389.37890625 C74.152126 387.16541742 76.13848784 385.00309429 78.13916016 382.84692383 C82.11243953 378.56355146 85.96394697 374.24554424 89.625 369.6875 C92.99098508 365.50259905 96.51949722 361.54210021 100.1875 357.625 C104.58796549 352.92093543 108.74164377 348.09479559 112.77734375 343.0703125 C115.6778109 339.52581942 118.67622571 336.07534644 121.6875 332.625 C126.13460515 327.52076247 130.50201372 322.36886629 134.765625 317.109375 C137.78337714 313.39072559 140.82894917 309.69547536 143.875 306 C144.47030518 305.27643311 145.06561035 304.55286621 145.67895508 303.80737305 C148.70128768 300.13488515 151.73108754 296.46908153 154.77734375 292.81640625 C162.03904561 284.09116756 169.02942477 275.22063966 175.75390625 266.07470703 C177.18518417 264.12814955 178.62328088 262.18678465 180.0625 260.24609375 C185.93136756 252.31229175 191.63436699 244.28390896 197.1875 236.125 C197.93128906 235.04734375 198.67507813 233.9696875 199.44140625 232.859375 C208.32622289 219.8644744 217.33981156 206.30860709 224.1875 192.125 C232.18440351 199.64904313 237.87608387 209.67884188 241.1875 220.125 C241.48527344 221.03894531 241.78304687 221.95289063 242.08984375 222.89453125 C247.74958643 243.21222503 244.37064165 264.95170318 234.47265625 283.3046875 C224.32559743 300.6107142 209.47700714 315.29973577 194.1875 328.125 C193.14192962 329.03235883 192.09779925 329.94137826 191.0546875 330.8515625 C183.8276728 337.13878203 176.44634143 343.13378252 168.80078125 348.90283203 C166.61099687 350.56173951 164.43774295 352.24165543 162.26391602 353.92138672 C157.59845343 357.52560078 152.90921863 361.09456912 148.1875 364.625 C140.39820886 370.45171517 132.68766243 376.3789292 125.03125 382.37890625 C117.24744138 388.47223086 109.41582585 394.47536587 101.4375 400.3125 C94.18686499 405.61837745 87.0807841 411.0684184 80.04638672 416.65625 C76.44464746 419.50206867 72.8136906 422.31045596 69.1875 425.125 C58.15994078 433.69658427 47.17537556 442.29910954 36.36547852 451.14428711 C31.48657629 455.11701526 26.51717698 458.95397964 21.5 462.75 C14.17305053 468.29898292 7.15676043 474.13693808 0.1875 480.125 C-5.83089618 485.28733121 -11.9907446 490.06944847 -18.5625 494.5 C-19.17657715 494.91709229 -19.7906543 495.33418457 -20.42333984 495.76391602 C-32.73917707 503.90418966 -45.42987831 505.08172212 -59.8125 503.125 C-72.80995533 500.19107149 -82.63981092 492.72549311 -92.91113281 484.62011719 C-94.97203602 482.99955078 -97.04346709 481.39319209 -99.1171875 479.7890625 C-106.35432043 474.18765578 -113.55832122 468.55079995 -120.6875 462.8125 C-125.97947831 458.55378028 -131.35549746 454.43451387 -136.80859375 450.3828125 C-140.64400333 447.5000209 -144.41119414 444.5362576 -148.17773438 441.56445312 C-153.06197569 437.71127037 -157.96403628 433.88156563 -162.875 430.0625 C-163.64247559 429.46566406 -164.40995117 428.86882812 -165.20068359 428.25390625 C-169.64425335 424.80148493 -174.09761923 421.36230182 -178.5625 417.9375 C-182.83814057 414.65631812 -187.0835245 411.34076192 -191.3125 408 C-199.93420629 401.19592264 -208.69729675 394.57685821 -217.44042969 387.93017578 C-222.00514552 384.45636878 -226.55478957 380.96326747 -231.09277344 377.45458984 C-232.34288834 376.48807568 -233.59362177 375.52236136 -234.84472656 374.55712891 C-245.03502843 366.69105032 -255.11678569 358.70954324 -265.07275391 350.54882812 C-266.63198327 349.27273696 -268.196511 348.00312619 -269.76171875 346.734375 C-272.45779893 344.54602379 -275.13613892 342.33740737 -277.8125 340.125 C-278.79476562 339.32964844 -279.77703125 338.53429687 -280.7890625 337.71484375 C-306.54553819 316.53782074 -331.88765184 291.48605437 -339.8125 258.125 C-340.00585938 257.3309375 -340.19921875 256.536875 -340.3984375 255.71875 C-343.64672416 235.37099207 -337.53553703 215.70815717 -325.8125 199.125 C-324.20834929 197.0464388 -322.56123207 195.0856996 -320.8125 193.125 C-317.8125 194.125 -317.8125 194.125 -316.33203125 196.625 C-315.48705078 198.3575 -315.48705078 198.3575 -314.625 200.125 C-305.24992775 218.52995165 -293.14366221 235.60072013 -280.8125 252.125 C-280.049375 253.16011719 -279.28625 254.19523437 -278.5 255.26171875 C-269.56934802 267.29511563 -260.36092092 279.14593573 -250.8125 290.6953125 C-248.82582757 293.10880908 -246.87878511 295.54991032 -244.9375 298 C-241.36133611 302.48620162 -237.67138531 306.8662466 -233.9519043 311.23339844 C-231.00247527 314.70115636 -228.11009625 318.20772532 -225.25 321.75 C-221.42463895 326.45498952 -217.38327348 330.91868983 -213.27734375 335.37890625 C-210.88542703 338.04375166 -208.61995116 340.77331825 -206.375 343.5625 C-202.23321307 348.69391744 -197.8374026 353.53239182 -193.359375 358.3671875 C-190.10375373 361.89244611 -186.94819578 365.49322735 -183.8125 369.125 C-181.68848826 371.58418901 -179.56348252 374.0425145 -177.4375 376.5 C-176.58961914 377.48009033 -176.58961914 377.48009033 -175.72460938 378.47998047 C-171.79446465 383.01415262 -167.8110993 387.49543121 -163.78125 391.94140625 C-161.97715216 393.94237985 -160.20242983 395.9645031 -158.4375 398 C-154.98512536 401.96621645 -151.42940269 405.83554305 -147.85986328 409.69604492 C-145.26517374 412.50940809 -142.75695836 415.36857298 -140.3125 418.3125 C-135.66089937 423.68667937 -129.62933865 429.85272045 -122.8125 432.125 C-121.39147268 429.00823508 -121.39147268 429.00823508 -123.40234375 425.71875 C-124.17222713 424.34697924 -124.95567557 422.98276439 -125.75 421.625 C-126.36862915 420.54859253 -126.36862915 420.54859253 -126.99975586 419.45043945 C-130.55094795 413.36978027 -134.54228169 407.72163883 -138.8125 402.125 C-140.06636119 400.39863113 -141.31626457 398.66938181 -142.5625 396.9375 C-150.97721361 385.38982284 -159.58536139 374.062139 -168.64453125 363.01171875 C-171.66827107 359.31787769 -174.62474569 355.57489617 -177.5625 351.8125 C-181.43858419 346.85409225 -185.37383094 341.95231243 -189.375 337.09375 C-191.21697914 334.85031386 -193.04967834 332.60067481 -194.875 330.34375 C-200.43583341 323.46980387 -206.03816146 316.64505673 -211.78417969 309.92504883 C-215.11123469 306.01097338 -218.28981915 301.99665451 -221.4375 297.9375 C-225.33244405 292.91686149 -229.40961984 288.15406934 -233.70703125 283.46875 C-237.26715416 279.50571893 -240.52948854 275.31797659 -243.8125 271.125 C-244.67670387 270.02964843 -245.54130919 268.9346135 -246.40625 267.83984375 C-313.12338051 183.3030428 -313.12338051 183.3030428 -310.8125 151.125 C-309.2835194 138.80646044 -304.99585962 126.66847479 -296.8125 117.125 C-296.1525 117.125 -295.4925 117.125 -294.8125 117.125 C-294.61398437 116.57457031 -294.41546875 116.02414062 -294.2109375 115.45703125 C-292.2381522 112.16721889 -289.43807197 110.11340495 -286.4375 107.8125 C-285.80900146 107.3275708 -285.18050293 106.8426416 -284.53295898 106.34301758 C-276.50045229 100.24998582 -268.11561083 95.48562774 -258.8125 91.625 C-258.17707275 91.3571167 -257.54164551 91.0892334 -256.88696289 90.81323242 C-253.37993809 89.43022665 -251.38656176 89.01004812 -247.8125 90.125 C-247.5808313 91.06291382 -247.5808313 91.06291382 -247.34448242 92.01977539 C-243.91102809 105.73748484 -239.96066946 119.13473501 -235.1875 132.4375 C-234.95815765 133.07736847 -234.72881531 133.71723694 -234.49252319 134.37649536 C-232.96007075 138.63638049 -231.39426475 142.88320869 -229.8125 147.125 C-229.39258789 148.25341309 -228.97267578 149.38182617 -228.54003906 150.54443359 C-226.26671335 156.56138195 -223.81352598 162.43525116 -221.10791016 168.26953125 C-218.87487998 173.19179302 -216.85554124 178.20309096 -214.79571533 183.19967651 C-207.5823303 200.65327965 -199.77879297 217.81680531 -191.82470703 234.9430542 C-190.81425417 237.12121866 -189.80701671 239.30084142 -188.80078125 241.48095703 C-181.83955868 256.5578389 -174.75979268 271.5065427 -166.87402344 286.12792969 C-165.18583753 289.3039556 -163.59273098 292.52533871 -162 295.75 C-153.95581731 311.95204217 -145.58969785 327.9647384 -136.61621094 343.67236328 C-132.94978609 350.09136265 -129.38656935 356.55767197 -125.875 363.0625 C-119.45624558 374.9086501 -112.69471106 386.5430929 -105.8125 398.125 C-105.30847656 398.98109863 -104.80445313 399.83719727 -104.28515625 400.71923828 C-102.93303973 403.00895051 -101.56420552 405.28751112 -100.1875 407.5625 C-99.60331299 408.55612549 -99.60331299 408.55612549 -99.00732422 409.56982422 C-96.91739026 413.02040174 -96.91739026 413.02040174 -93.5390625 415.03515625 C-92.96929687 415.06480469 -92.39953125 415.09445312 -91.8125 415.125 C-92.4512773 400.68863306 -98.84771361 388.34186593 -105 375.5625 C-105.77210821 373.9465056 -106.54358881 372.33021118 -107.31445312 370.71362305 C-108.81382551 367.57094855 -110.31650522 364.42989157 -111.82177734 361.29003906 C-113.82734665 357.10162298 -115.79761401 352.89728777 -117.76049805 348.6887207 C-121.07229083 341.60168398 -124.60293592 334.67378246 -128.31201172 327.78710938 C-131.86334605 321.14336369 -135.08385916 314.35670204 -138.30419922 307.54785156 C-142.19518466 299.3491325 -146.23585095 291.23230788 -150.3125 283.125 C-155.06089371 273.6742576 -159.7392325 264.1973202 -164.26660156 254.63818359 C-167.26748646 248.31728581 -170.32399134 242.02565288 -173.41015625 235.74609375 C-183.59352161 215.01606472 -193.54547422 194.22077157 -202.9263916 173.11468506 C-203.82462171 171.09778168 -204.72757291 169.08305278 -205.63183594 167.06884766 C-214.04125333 148.32380135 -221.85574599 129.46615373 -228.8125 110.125 C-229.22322754 108.98869141 -229.63395508 107.85238281 -230.05712891 106.68164062 C-231.22557036 103.41960431 -232.36870894 100.15008507 -233.5 96.875 C-233.83950684 95.91722656 -234.17901367 94.95945312 -234.52880859 93.97265625 C-236.92932771 86.83095269 -238.56582861 80.22680588 -235.16015625 73.16796875 C-234.42059743 71.86993378 -233.65793181 70.58484422 -232.875 69.3125 C-232.4718457 68.62816895 -232.06869141 67.94383789 -231.65332031 67.23876953 C-227.81569058 60.85413263 -223.46330586 54.94310299 -218.8125 49.125 C-218.02875 48.073125 -217.245 47.02125 -216.4375 45.9375 C-203.53606347 32.11453229 -185.34816667 20.9726964 -166.08984375 19.921875 C-154.41850661 19.71602176 -143.29429955 21.11149027 -131.8125 23.125 C-131.9775 24.011875 -132.1425 24.89875 -132.3125 25.8125 C-133.91683924 37.34162362 -132.53382956 49.26348231 -131.625 60.8125 C-131.5275499 62.06530258 -131.5275499 62.06530258 -131.4281311 63.34341431 C-128.86795654 95.84917762 -124.54713902 128.03359177 -118.8125 160.125 C-117.02017663 159.81628878 -115.22865679 159.50290936 -113.4375 159.1875 C-112.43976563 159.01347656 -111.44203125 158.83945312 -110.4140625 158.66015625 C-107.84340344 158.24787938 -107.84340344 158.24787938 -105.8125 157.125 C-106.1847168 155.27310059 -106.1847168 155.27310059 -106.56445312 153.38378906 C-109.28798005 139.60441761 -111.42809832 125.79182405 -113.3125 111.875 C-113.46213196 110.78169373 -113.61176392 109.68838745 -113.76593018 108.56195068 C-117.14666154 83.77066965 -119.76410644 58.90861106 -121.58984375 33.95410156 C-121.7524147 31.88845226 -121.94468258 29.82507872 -122.15429688 27.76367188 C-122.44587309 24.66089882 -122.49695574 22.16902685 -121.8125 19.125 C-119.89026906 16.85821824 -117.91886866 15.48807017 -115.41796875 13.88671875 C-112.57811841 11.9665201 -110.55850079 9.84048474 -108.25 7.3125 C-79.17053796 -22.26212315 -32.9467598 -23.11889111 0 0 Z " fill="#1D140D" transform="translate(559.8125,262.875)"/>
<path d="M0 0 C3.12309802 2.09431279 5.63944408 4.35524223 8.15234375 7.140625 C9.78582648 9.01111498 9.78582648 9.01111498 12.59375 11.09375 C33.69588161 28.40974718 47.84336066 62.24632718 50.65625 88.78125 C50.7731593 91.14448806 50.76143863 93.41450592 50.65625 95.78125 C49.66625 95.61625 48.67625 95.45125 47.65625 95.28125 C39.02522016 94.09796365 33.19876298 94.68847521 25.71875 99.78125 C21.98326214 103.01867282 19.45453357 107.23972591 16.78125 111.35546875 C14.1490025 114.3602954 12.57204899 115.05174418 8.65625 115.78125 C3.00547799 115.46257605 -1.97377347 114.18669212 -7.28125 112.28125 C-8.00924805 112.01989258 -8.73724609 111.75853516 -9.48730469 111.48925781 C-23.2285529 106.36210251 -35.10311163 99.14586458 -46.34375 89.78125 C-46.86356445 89.35859863 -47.38337891 88.93594727 -47.91894531 88.50048828 C-57.79597623 80.424563 -67.45655613 68.6467928 -72.34375 56.78125 C-72.34375 52.78125 -72.34375 52.78125 -70.03125 50.28125 C-69.144375 49.45625 -68.2575 48.63125 -67.34375 47.78125 C-61.47198515 40.76734635 -60.83018326 31.604143 -60.34375 22.78125 C-59.498125 22.55050781 -58.6525 22.31976563 -57.78125 22.08203125 C-51.55506173 20.29200212 -46.13511112 18.50444463 -40.83203125 14.734375 C-39.34375 13.78125 -39.34375 13.78125 -37.34375 13.78125 C-37.06917969 13.224375 -36.79460938 12.6675 -36.51171875 12.09375 C-29.77592871 -1.24266372 -29.77592871 -1.24266372 -24.5078125 -3.65625 C-15.54032477 -5.98714934 -7.97461201 -4.44899407 0 0 Z " fill="#1D140D" transform="translate(811.34375,228.21875)"/>
<path d="M0 0 C4.61667848 3.79672786 7.25983799 8.34643334 10.16796875 13.4921875 C15.37318478 21.5678261 26.02470174 23.94786073 34.6484375 26.7890625 C34.79539062 27.90023437 34.94234375 29.01140625 35.09375 30.15625 C37.05531869 44.16034705 37.05531869 44.16034705 45.3984375 55.171875 C46.6484375 56.7890625 46.6484375 56.7890625 46.5546875 59.62109375 C43.84086642 69.10777004 35.39484899 78.6787367 28.6484375 85.7890625 C27.9884375 85.7890625 27.3284375 85.7890625 26.6484375 85.7890625 C26.1534375 87.2740625 26.1534375 87.2740625 25.6484375 88.7890625 C10.3843585 103.29576353 -11.81925976 117.27034521 -33.2890625 119.6640625 C-37.21506189 119.41362351 -38.88555394 117.64163954 -41.4765625 114.7890625 C-42.79062303 113.13999444 -44.0826478 111.47311596 -45.3515625 109.7890625 C-50.03607974 103.87666519 -54.51127266 98.56105483 -62.390625 97.51953125 C-66.75703782 97.4268082 -71.05693112 98.0732906 -75.3515625 98.7890625 C-77.03030788 72.34882277 -61.7884095 42.56434692 -44.92041016 23.14111328 C-16.87694789 -8.69078712 -16.87694789 -8.69078712 0 0 Z " fill="#1D140D" transform="translate(237.3515625,225.2109375)"/>
<path d="M0 0 C0.99 0.495 0.99 0.495 2 1 C1.95509101 5.69221516 1.88450842 10.38317904 1.79248047 15.07470703 C1.7646637 16.66282052 1.74325909 18.25106236 1.72900391 19.83935547 C1.58603175 34.88955819 0.74262599 51.33081089 -10.5546875 62.54296875 C-18.67337124 69.16610548 -30.86136823 70.16155168 -40.93359375 70.1328125 C-42.06608299 70.13424759 -42.06608299 70.13424759 -43.22145081 70.13571167 C-44.81747521 70.13638977 -46.41350243 70.13456139 -48.00952148 70.13037109 C-50.3989925 70.12508519 -52.78826967 70.13029346 -55.17773438 70.13671875 C-76.07831462 70.14918199 -76.07831462 70.14918199 -84 69 C-84.66 68.34 -85.32 67.68 -86 67 C-85.22398437 66.40574219 -84.44796875 65.81148437 -83.6484375 65.19921875 C-75.97481038 59.31446162 -68.35226094 53.36818194 -60.75732422 47.38232422 C-59.02979098 46.02343381 -57.29874535 44.66916291 -55.56640625 43.31640625 C-49.32621652 38.43906757 -43.13758996 33.50599253 -37 28.5 C-29.73583956 22.57643195 -22.40046698 16.75219068 -15 11 C-14.09096924 10.29254639 -14.09096924 10.29254639 -13.16357422 9.57080078 C-11.36100906 8.16964919 -9.55608616 6.77160914 -7.75 5.375 C-7.20061768 4.94872314 -6.65123535 4.52244629 -6.08520508 4.08325195 C-2.23373256 1.11686628 -2.23373256 1.11686628 0 0 Z " fill="#1D140D" transform="translate(676,695)"/>
<path d="M0 0 C6.99770252 2.1348923 11.24469717 5.8183997 14.9375 12.125 C19.27878073 20.79573235 22.07239562 30.43710605 22.6875 40.125 C22.75066406 41.0634375 22.81382812 42.001875 22.87890625 42.96875 C23.26594032 53.25636524 22.10601327 64.76620488 15.1875 72.875 C13.46875 74.609375 13.46875 74.609375 11.6875 76.125 C11.0584375 76.70765625 10.429375 77.2903125 9.78125 77.890625 C7.6875 79.125 7.6875 79.125 5.2109375 79.09765625 C1.96825753 77.84776877 0.55099015 76.20909034 -1.6875 73.5625 C-2.47511719 72.65371094 -3.26273438 71.74492187 -4.07421875 70.80859375 C-5.38795724 69.2334832 -6.68863975 67.64700768 -7.95703125 66.03515625 C-12.10952065 60.8944795 -16.91044057 57.31538564 -22.33862305 53.625 C-30.84888835 47.82997618 -30.84888835 47.82997618 -32.02734375 43.49609375 C-32.5671161 36.38435631 -32.58248647 29.63137719 -29.3125 23.125 C-26.0625 20.8125 -26.0625 20.8125 -24.203125 19.9921875 C-18.89241503 17.55628334 -15.15070381 13.06513229 -11.6875 8.5 C-5.380693 0.20304502 -5.380693 0.20304502 0 0 Z " fill="#1D140D" transform="translate(854.3125,337.875)"/>
<path d="M0 0 C4.82345272 3.03427611 8.21073294 7.09088998 11 12 C11 12.66 11 13.32 11 14 C11.56589844 14.28230469 12.13179687 14.56460937 12.71484375 14.85546875 C13.46894531 15.23316406 14.22304687 15.61085938 15 16 C16.11568359 16.55107422 16.11568359 16.55107422 17.25390625 17.11328125 C25.25101288 21.26744662 25.25101288 21.26744662 27 26 C29.03257049 32.75302107 29.54157237 38.71455389 27.37109375 45.49609375 C24.80402122 50.1841094 20.49425313 52.36104958 16 55 C7.74245931 60.66488273 0.91237855 67.27252277 -4.7734375 75.53125 C-5.17820313 76.0159375 -5.58296875 76.500625 -6 77 C-6.66 77 -7.32 77 -8 77 C-8 77.66 -8 78.32 -8 79 C-13.63712302 77.90217954 -17.27853588 74.49657362 -20.4921875 69.8359375 C-28.40844407 55.45551877 -27.23414594 36.94459784 -23.0703125 21.56640625 C-20.23490973 13.26552021 -15.67509846 5.34387772 -7.8984375 0.76171875 C-4.96081995 -0.41695496 -3.15034705 -0.49417209 0 0 Z " fill="#1D140D" transform="translate(173,338)"/>
<path d="M0 0 C2.27703926 0.02411275 4.5529392 0.02046231 6.83007812 0.01391602 C18.89984517 0.05979583 18.89984517 0.05979583 22.48632812 2.33618164 C21.18695313 2.54243164 19.88757813 2.74868164 18.54882812 2.96118164 C-8.48083813 8.46651678 -33.38696304 25.02601412 -49.51367188 47.33618164 C-54.72791783 55.441854 -58.10118579 64.36932991 -61.51367188 73.33618164 C-66.08944978 72.79144618 -69.59363813 71.79486947 -73.51367188 69.33618164 C-75.60351562 66.62915039 -75.60351562 66.62915039 -77.45117188 63.52368164 C-82.30459128 55.88369825 -86.95727407 51.35608675 -95.51367188 48.33618164 C-96.17367187 48.33618164 -96.83367187 48.33618164 -97.51367188 48.33618164 C-96.89639072 44.95256645 -95.6438747 42.81615603 -93.57617188 40.08618164 C-93.05152344 39.37977539 -92.526875 38.67336914 -91.98632812 37.94555664 C-91.50035156 37.41446289 -91.014375 36.88336914 -90.51367188 36.33618164 C-89.85367188 36.33618164 -89.19367188 36.33618164 -88.51367188 36.33618164 C-88.18367187 35.34618164 -87.85367188 34.35618164 -87.51367188 33.33618164 C-85.06905433 30.75429947 -82.27187079 28.57413491 -79.51367188 26.33618164 C-78.75183594 25.70325195 -77.99 25.07032227 -77.20507812 24.41821289 C-66.31919337 15.90990047 -53.32751958 10.41559871 -40.32617188 5.96118164 C-39.67575928 5.73479004 -39.02534668 5.50839844 -38.35522461 5.27514648 C-25.75476186 1.20001201 -13.1713857 -0.14941109 0 0 Z " fill="#1D140D" transform="translate(333.513671875,164.663818359375)"/>
<path d="M0 0 C4.72137183 3.02894162 9.04765484 6.37298469 13.375 9.9375 C14.79684994 11.10029106 16.21872567 12.26305058 17.640625 13.42578125 C18.36314453 14.0182666 19.08566406 14.61075195 19.83007812 15.22119141 C31.01352654 24.38890125 42.28209106 33.43477467 53.69287109 42.31787109 C60.93303161 47.95513646 68.09759465 53.67440215 75.1875 59.5 C75.91880127 60.09981689 76.65010254 60.69963379 77.40356445 61.31762695 C78.08894287 61.88312256 78.77432129 62.44861816 79.48046875 63.03125 C80.39155396 63.78245117 80.39155396 63.78245117 81.32104492 64.54882812 C82.96036626 65.96574335 84.48879327 67.44815239 86 69 C81.20154671 70.17011463 76.41315991 70.34382674 71.5 70.5625 C70.58017334 70.6035083 69.66034668 70.6445166 68.71264648 70.68676758 C26.89789928 72.40313733 26.89789928 72.40313733 12.1875 63.25 C1.63098411 52.39186937 0.40051113 37.56006732 0.25 23.125 C0.2217195 21.76298519 0.19177624 20.40100387 0.16015625 19.0390625 C0.0289814 12.69269814 -0.03246855 6.34760159 0 0 Z " fill="#1D140D" transform="translate(344,694)"/>
<path d="M0 0 C1.74518921 -0.00640503 1.74518921 -0.00640503 3.52563477 -0.01293945 C4.76112061 -0.00351318 5.99660645 0.00591309 7.26953125 0.015625 C8.53659912 0.02311768 9.80366699 0.03061035 11.10913086 0.03833008 C45.68109023 0.43337513 78.31417556 10.39326359 103.08203125 35.265625 C112.08203125 44.61128645 112.08203125 44.61128645 112.08203125 47.265625 C111.41816406 47.50796875 110.75429688 47.7503125 110.0703125 48 C101.75971478 50.91845379 101.75971478 50.91845379 96.08203125 57.265625 C95.42203125 57.265625 94.76203125 57.265625 94.08203125 57.265625 C93.85515625 58.131875 93.62828125 58.998125 93.39453125 59.890625 C91.36800762 65.10168577 89.39071657 68.21208409 84.30859375 70.53125 C81.58481703 71.52553353 78.86068591 72.43835479 76.08203125 73.265625 C74.3755078 70.0668501 73.20953613 66.81135587 72.01953125 63.390625 C67.43830501 51.42032418 60.11986755 41.3034613 51.08203125 32.265625 C50.39753906 31.58113281 49.71304688 30.89664063 49.0078125 30.19140625 C33.85869342 15.93835336 10.98507748 3.65916142 -9.91796875 2.265625 C-6.53548425 0.22509069 -3.9197462 0.00847055 0 0 Z " fill="#1D140D" transform="translate(674.91796875,164.734375)"/>
<path d="M0 0 C7.62429297 3.84817811 13.32902119 11.39056917 18.3125 18.125 C21.65524289 21.70095751 25.37387505 23.91425663 29.57421875 26.38671875 C32 28 32 28 34 31 C33.15635611 42.02763081 25.38100127 50.43866013 18 58 C17.03126953 59.02673828 17.03126953 59.02673828 16.04296875 60.07421875 C12.89592182 63.34467929 9.97072681 65.73776619 6 68 C5.443125 66.96101563 4.88625 65.92203125 4.3125 64.8515625 C-3.80661956 49.67333014 -3.80661956 49.67333014 -16.625 38.625 C-19.1796875 36.7265625 -19.1796875 36.7265625 -21 34 C-21.84209638 27.34414214 -20.35853138 20.5039607 -19 14 C-18.8563501 13.24654297 -18.7127002 12.49308594 -18.56469727 11.71679688 C-17.40206607 6.24884617 -15.82618726 4.07230047 -11.27734375 1.078125 C-7.38255725 -0.76571904 -4.17431471 -1.07842577 0 0 Z " fill="#1D140D" transform="translate(821,404)"/>
<path d="M0 0 C5.47834413 2.62960518 8.83677124 6.38707688 11 12 C11.9974066 17.31769494 12.50420826 22.61634836 13 28 C13.30463371 30.33867521 13.64819336 32.66776462 14 35 C13.09507812 35.47179687 13.09507812 35.47179687 12.171875 35.953125 C7.8496809 38.26759023 4.36094221 40.37018242 1 44 C0.34 44 -0.32 44 -1 44 C-1.2371875 44.515625 -1.474375 45.03125 -1.71875 45.5625 C-3.78582621 49.49498644 -6.29107577 53.15378345 -8.72265625 56.8671875 C-10.65659124 59.84149016 -12.51566909 62.77319367 -14 66 C-22.50690567 63.60743278 -27.78987932 56.28145355 -32.8125 49.5 C-33.28059082 48.87134033 -33.74868164 48.24268066 -34.23095703 47.5949707 C-37.96176009 42.41404885 -40.99095205 37.87121632 -41.01171875 31.28125 C-39.73911434 27.15388434 -38.5615351 26.52061601 -34.8125 24.5 C-28.44426995 20.63194619 -23.87608706 15.95712224 -18.9855957 10.3671875 C-8.57756328 -1.40360126 -8.57756328 -1.40360126 0 0 Z " fill="#1D140D" transform="translate(210,404)"/>
<path d="M0 0 C10.68073256 7.20252165 19.63516799 17.05182785 27.62890625 27.0546875 C30.77382762 30.96122904 34.0251819 34.7726964 37.28295898 38.58520508 C38.53003497 40.0499774 39.7654714 41.52463713 41 43 C41.60070312 43.64066406 42.20140625 44.28132813 42.8203125 44.94140625 C44.66097953 48.15343116 44.45783045 50.35261745 44 54 C42.78736362 56.78617644 41.19508997 59.23459664 39.5 61.75 C38.81115723 62.81021362 38.81115723 62.81021362 38.10839844 63.8918457 C35.00419485 68.62634941 31.72377036 73.21445233 28.3359375 77.75 C24.38316052 83.14961542 20.77380415 88.79936565 17.09863281 94.3894043 C14.40044636 98.47587084 11.67755752 102.54216726 8.8203125 106.51953125 C8.37187988 107.14577393 7.92344727 107.7720166 7.46142578 108.41723633 C5.75797585 110.2621187 4.35830144 111.14536525 2 112 C-0.86670678 111.25465624 -3.35583266 110.32208367 -6 109 C-6.57246418 102.09948582 -5.13824958 98.46098116 -1.375 92.75 C-0.8900708 91.9856665 -0.4051416 91.22133301 0.09448242 90.43383789 C5.07689863 82.67338524 10.38842363 75.13102412 15.73828125 67.62109375 C16.27533691 66.85780762 16.81239258 66.09452148 17.36572266 65.30810547 C18.488845 63.72190908 19.63026748 62.14856186 20.78662109 60.58642578 C21.34559082 59.80638184 21.90456055 59.02633789 22.48046875 58.22265625 C22.98860107 57.53051025 23.4967334 56.83836426 24.02026367 56.12524414 C25.32574795 53.29338752 24.98297823 51.92617521 24 49 C22.78787217 46.96966977 22.78787217 46.96966977 21.19140625 45.1015625 C20.61390625 44.38226563 20.03640625 43.66296875 19.44140625 42.921875 C18.82136719 42.16390625 18.20132813 41.4059375 17.5625 40.625 C9.26261629 30.22473756 1.87905655 19.44443386 -4.84375 7.953125 C-5.84108095 6.26844435 -6.91403104 4.62895345 -8 3 C-8 2.01 -8 1.02 -8 0 C-4.59092887 -1.13635704 -3.38846728 -1.03912997 0 0 Z " fill="#D58B51" transform="translate(556,435)"/>
<path d="M0 0 C2.203125 0.921875 2.203125 0.921875 3.203125 1.921875 C2.88381764 7.88227898 0.91762856 11.88996368 -2.171875 16.921875 C-2.61523193 17.65881592 -3.05858887 18.39575684 -3.51538086 19.1550293 C-8.9249547 27.99233941 -15.10448252 36.26216646 -21.52734375 44.3828125 C-21.95265381 44.92832764 -22.37796387 45.47384277 -22.81616211 46.03588867 C-23.96992993 47.51099948 -25.14064234 48.97281256 -26.3125 50.43359375 C-27.98181697 52.72883951 -27.98181697 52.72883951 -27.74609375 54.9453125 C-26.52704226 57.48374893 -25.04671666 59.60166433 -23.359375 61.859375 C-22.63234375 62.83648437 -21.9053125 63.81359375 -21.15625 64.8203125 C-18.82303008 67.88749233 -16.46947367 70.9378424 -14.109375 73.984375 C-9.90142263 79.42375995 -5.79253311 84.93236844 -1.734375 90.484375 C-1.16178955 91.2585376 -0.5892041 92.0327002 0.00073242 92.83032227 C0.53287354 93.56307373 1.06501465 94.2958252 1.61328125 95.05078125 C2.08902588 95.70119385 2.56477051 96.35160645 3.05493164 97.02172852 C4.26385321 99.02237419 4.84346013 100.61781839 5.203125 102.921875 C4.3789568 105.46930397 3.59623112 106.62704541 1.453125 108.234375 C-1.69483525 109.19625174 -3.64084745 108.82359716 -6.796875 107.921875 C-11.22069898 104.88462271 -14.06888203 101.20749015 -17.171875 96.921875 C-18.22468367 95.48915934 -19.27809869 94.05688911 -20.33203125 92.625 C-21.16758545 91.48514648 -21.16758545 91.48514648 -22.02001953 90.32226562 C-23.87911545 87.81077468 -25.76908383 85.32527415 -27.66796875 82.84375 C-45.75666827 59.16521749 -45.75666827 59.16521749 -45.83203125 53.0859375 C-44.37483153 48.63185533 -41.76433912 45.68930836 -38.734375 42.171875 C-37.54009825 40.74631683 -36.34608703 39.32053617 -35.15234375 37.89453125 C-34.57274902 37.2102002 -33.9931543 36.52586914 -33.39599609 35.82080078 C-31.40120404 33.45202329 -29.46851222 31.03773198 -27.546875 28.609375 C-26.296875 27.046875 -25.046875 25.484375 -23.796875 23.921875 C-23.11625 23.0659375 -22.435625 22.21 -21.734375 21.328125 C-19.45551609 18.49582893 -17.14029691 15.70102692 -14.796875 12.921875 C-14.30574219 12.33809082 -13.81460937 11.75430664 -13.30859375 11.15283203 C-11.74060737 9.30811356 -10.1479096 7.48794086 -8.546875 5.671875 C-8.05155273 5.08623779 -7.55623047 4.50060059 -7.04589844 3.8972168 C-3.45698661 -0.09656387 -3.45698661 -0.09656387 0 0 Z " fill="#D58B51" transform="translate(465.796875,433.078125)"/>
<path d="M0 0 C0.66 0 1.32 0 2 0 C11.48015601 22.67653317 0.86908801 57.25354092 -5 80 C-5.28359375 81.10424316 -5.5671875 82.20848633 -5.859375 83.34619141 C-15.0701239 118.79879323 -27.84126789 153.31086718 -43.625 186.375 C-44.09719971 187.3657251 -44.56939941 188.3564502 -45.0559082 189.37719727 C-47.6290852 194.62762546 -50.32037089 199.44127861 -54 204 C-54.66 204 -55.32 204 -56 204 C-55.53530855 195.63555389 -52.95568577 188.20578698 -50.1875 180.375 C-49.69611056 178.96392934 -49.20490296 177.55279534 -48.71386719 176.14160156 C-44.7917208 164.94385704 -40.5465304 153.87928114 -36.21508789 142.8347168 C-32.50315076 133.36465255 -28.99921843 123.84791254 -25.74707031 114.21044922 C-25.0045229 112.01338247 -24.24923735 109.82101235 -23.4921875 107.62890625 C-11.97941962 74.03310251 -2.60180805 39.04520115 -1.17578125 3.39453125 C-1 1 -1 1 0 0 Z " fill="#D58B51" transform="translate(659,318)"/>
<path d="M0 0 C8.91128779 3.12398942 16.94493056 10.08658759 23.125 17.125 C23.125 17.785 23.125 18.445 23.125 19.125 C24.01602417 19.50966431 24.01602417 19.50966431 24.92504883 19.90209961 C27.33644139 21.24253523 28.58178303 22.56676574 30.32421875 24.69140625 C34.30121203 29.38801561 38.57637447 33.72406896 42.9375 38.0625 C43.69998047 38.82884766 44.46246094 39.59519531 45.24804688 40.38476562 C45.97701172 41.11244141 46.70597656 41.84011719 47.45703125 42.58984375 C48.44280151 43.57392212 48.44280151 43.57392212 49.44848633 44.57788086 C51.05880588 46.20770479 51.05880588 46.20770479 53.125 47.125 C53.125 47.785 53.125 48.445 53.125 49.125 C53.69347656 49.36992188 54.26195312 49.61484375 54.84765625 49.8671875 C61.45803842 53.51820475 68.3316844 61.02933624 71.125 68.125 C70.63 69.61 70.63 69.61 70.125 71.125 C68.5 71.8125 68.5 71.8125 66.125 72.125 C64.578125 72.3415625 64.578125 72.3415625 63 72.5625 C57.33802331 71.92324457 53.75839349 69.32513044 49.125 66.125 C48.5568457 65.73344727 47.98869141 65.34189453 47.40332031 64.93847656 C31.31346407 53.751869 18.03095895 40.93627976 6.40234375 25.09765625 C3.46289884 21.26074789 0.26439048 17.71916014 -3.02734375 14.18359375 C-6.8583641 9.91520533 -6.8583641 9.91520533 -6.921875 6.8984375 C-6.82390625 6.10695313 -6.7259375 5.31546875 -6.625 4.5 C-6.53734375 3.70335937 -6.4496875 2.90671875 -6.359375 2.0859375 C-6.11960937 1.11527344 -6.11960937 1.11527344 -5.875 0.125 C-3.875 -0.875 -3.875 -0.875 0 0 Z " fill="#1D140D" transform="translate(837.875,613.875)"/>
<path d="M0 0 C4.25416695 1.82716932 6.35396479 3.99640044 8.45703125 8.10546875 C9.31476062 12.67796851 7.37030571 15.94761633 5.37329102 19.94018555 C2.13311486 26.42274256 -0.12358715 33.05600984 -2.375 39.9375 C-7.72111223 55.80404208 -14.55244027 70.5570003 -26 83 C-26.66 83 -27.32 83 -28 83 C-28.268125 83.61875 -28.53625 84.2375 -28.8125 84.875 C-30 87 -30 87 -33 89 C-35.48046875 89.4140625 -35.48046875 89.4140625 -38.1875 89.625 C-39.53908203 89.73714844 -39.53908203 89.73714844 -40.91796875 89.8515625 C-41.60503906 89.90054688 -42.29210937 89.94953125 -43 90 C-42.5000646 84.08629043 -41.26381102 79.53663414 -38.75 74.1875 C-38.40428955 73.42961182 -38.0585791 72.67172363 -37.70239258 71.89086914 C-33.93185295 63.69584072 -29.95574986 55.59556605 -26.0065918 47.4855957 C-21.67138294 38.53461648 -17.62025792 29.48182328 -13.77807617 20.30834961 C-10.48264001 12.59310631 -7.08154296 4.87837511 0 0 Z " fill="#1D140D" transform="translate(219,685)"/>
<path d="M0 0 C0.84453866 3.06588826 1.25545834 5.81929323 1 9 C-0.31149795 11.23835162 -1.87651904 12.81401904 -3.7109375 14.6484375 C-6.5161017 17.53019322 -8.9220356 20.63107175 -11.375 23.8125 C-12.32994841 25.03316329 -13.28567562 26.25321771 -14.2421875 27.47265625 C-15.940868 29.6426707 -17.6329136 31.81724702 -19.3203125 33.99609375 C-30.82249038 48.52841527 -48.18502114 63.59251057 -65 72 C-72.30434783 72.23188406 -72.30434783 72.23188406 -76 71 C-75.55199076 62.03981514 -68.19292504 55.78309336 -62 50 C-60.81273556 48.97176058 -59.6211122 47.94853836 -58.42578125 46.9296875 C-53.24342349 42.41156595 -48.41153861 37.55779079 -43.5625 32.6875 C-42.65306641 31.78193359 -41.74363281 30.87636719 -40.80664062 29.94335938 C-39.94361328 29.07904297 -39.08058594 28.21472656 -38.19140625 27.32421875 C-37.40967041 26.54135498 -36.62793457 25.75849121 -35.82250977 24.9519043 C-33.94470633 23.12569468 -33.94470633 23.12569468 -33 21 C-32.34 21 -31.68 21 -31 21 C-30.731875 20.40832031 -30.46375 19.81664062 -30.1875 19.20703125 C-25.16613448 9.87455915 -10.94701442 -0.99518313 0 0 Z " fill="#1D140D" transform="translate(192,614)"/>
<path d="M0 0 C1.70527618 0.03487432 3.41062655 0.06627731 5.11602783 0.09437561 C9.58748192 0.17790242 14.056162 0.31083883 18.52606201 0.45361328 C23.07790133 0.58909857 27.63068476 0.67298007 32.18359375 0.76367188 C38.82977665 0.90662652 45.47552055 1.06076172 52.12011719 1.26538086 C53.15970329 1.29286659 53.15970329 1.29286659 54.22029114 1.32090759 C57.44358577 1.42812906 60.426377 1.63492543 63.515625 2.59765625 C63.1542409 9.22303138 61.41036345 14.17203795 57.515625 19.59765625 C53.87708146 22.02335194 51.2275902 21.94018971 47.015625 21.91015625 C46.21318359 21.90741699 45.41074219 21.90467773 44.58398438 21.90185547 C30.51095591 21.67989146 16.45831703 20.11519532 2.4564209 18.78118896 C-0.29141159 18.52133827 -3.04032706 18.2735296 -5.7890625 18.0234375 C-7.47930807 17.86215216 -9.16942911 17.69955188 -10.859375 17.53515625 C-11.58833984 17.46828613 -12.31730469 17.40141602 -13.06835938 17.33251953 C-16.82955811 16.94263917 -20.13543352 16.40571186 -23.484375 14.59765625 C-24.796875 11.47265625 -24.796875 11.47265625 -25.484375 8.59765625 C-18.99189785 -1.28983741 -10.61446889 -0.39709577 0 0 Z " fill="#1D140D" transform="translate(725.484375,670.40234375)"/>
<path d="M0 0 C3.1713562 0.10093689 3.1713562 0.10093689 5.23776245 1.63999939 C9.30146327 7.30583813 9.30146327 7.30583813 8.6088562 11.53843689 C7.1713562 14.10093689 7.1713562 14.10093689 6.1713562 15.10093689 C4.12430625 15.43988281 2.06686081 15.71616964 0.0072937 15.96812439 C-0.96460152 16.0872821 -0.96460152 16.0872821 -1.95613098 16.20884705 C-4.12125557 16.4709831 -6.2872469 16.72454089 -8.4536438 16.97593689 C-9.19496552 17.06264648 -9.93628723 17.14935608 -10.70007324 17.23869324 C-22.6298181 18.62229069 -34.57571714 19.7904006 -46.54586792 20.76408386 C-48.27115937 20.90491984 -49.99614527 21.04955218 -51.72079468 21.19804382 C-54.14785883 21.40482614 -56.5756447 21.5952308 -59.00442505 21.78062439 C-59.72385788 21.84386902 -60.44329071 21.90711365 -61.18452454 21.97227478 C-65.26517681 22.26048849 -68.19857643 22.0402368 -71.8286438 20.10093689 C-76.2794811 15.78918825 -78.59161899 9.79434839 -80.8286438 4.10093689 C-80.8286438 3.44093689 -80.8286438 2.78093689 -80.8286438 2.10093689 C-76.76548098 1.13928735 -72.93309919 0.94760577 -68.76272583 0.89561462 C-68.07098267 0.88571503 -67.3792395 0.87581543 -66.66653442 0.86561584 C-64.38987587 0.83414763 -62.11319691 0.80928624 -59.8364563 0.78453064 C-58.24610895 0.76393309 -56.65576673 0.74293593 -55.06542969 0.72155762 C-50.8826225 0.66645952 -46.69976647 0.6170282 -42.51687622 0.56871033 C-38.27569998 0.51861928 -34.03460025 0.46274184 -29.79348755 0.40757751 C-23.58014193 0.32788545 -17.36678121 0.24967685 -11.15335083 0.17686462 C-9.90490387 0.16211594 -8.65645691 0.14736725 -7.37017822 0.13217163 C-4.91315269 0.11050177 -2.45626763 0.06475609 0 0 Z " fill="#1D140D" transform="translate(314.8286437988281,670.8990631103516)"/>
<path d="M0 0 C12.05865122 5.6746594 16.62659668 21.94308465 21.26025391 33.44799805 C23.52267711 38.99971207 26.07458606 44.34225801 28.79711914 49.68066406 C31.72066022 55.41386942 34.53600098 61.19417759 37.3125 67 C37.94345581 68.30855957 37.94345581 68.30855957 38.5871582 69.64355469 C45 83.08588249 45 83.08588249 45 89 C41.16091166 90.1517265 39.10515396 90.03329875 35.25 88.8125 C14.03664513 76.71928065 5.82622324 44.67252911 -1.25018311 23.07507324 C-2.08719921 20.54473037 -2.92961124 18.13581973 -4.15771484 15.76611328 C-5.62491904 12.68966251 -4.76602246 10.22823752 -4 7 C-2.81383834 4.5316312 -1.46903725 2.32202662 0 0 Z " fill="#1D140D" transform="translate(803,685)"/>
<path d="M0 0 C3.26617759 3.26617759 3.19338296 6.36441095 3.26953125 10.7890625 C3.19133319 21.11915885 1.34075268 31.20173746 -0.3125 41.375 C-0.96234481 45.47052411 -1.60457616 49.56722678 -2.24609375 53.6640625 C-2.40217102 54.65510986 -2.55824829 55.64615723 -2.71905518 56.66723633 C-4.06979246 65.29966733 -5.21809541 73.943811 -6.20043945 82.62646484 C-6.91042263 88.82084526 -6.91042263 88.82084526 -8 91 C-15.28971963 89.78504673 -15.28971963 89.78504673 -18.375 86.375 C-21.60330542 79.67005797 -22.35830687 73.01952886 -22.6875 65.6875 C-22.73455078 64.90955078 -22.78160156 64.13160156 -22.83007812 63.33007812 C-23.34062842 53.12744198 -21.98723594 43.84332261 -19.125 34.0625 C-18.57538202 32.13843185 -18.0271925 30.21395505 -17.48046875 28.2890625 C-17.09060791 26.92249512 -17.09060791 26.92249512 -16.69287109 25.52832031 C-15.82207285 22.35073519 -15.12884014 19.15842574 -14.4375 15.9375 C-13.28503407 11.30776617 -11.90194999 8.94813999 -8 6 C-7.30648437 5.46503906 -6.61296875 4.93007813 -5.8984375 4.37890625 C-3.95194092 2.88980198 -1.98680326 1.43463958 0 0 Z " fill="#1D140D" transform="translate(755,749)"/>
<path d="M0 0 C1.64549861 7.51539259 3.27983367 15.03315651 4.90722656 22.55249023 C5.45948072 25.09826671 6.01408271 27.64353527 6.57128906 30.18823242 C11.00260684 50.43711503 14.7109696 70.69193495 17.375 91.25 C17.47194153 91.9669252 17.56888306 92.6838504 17.66876221 93.42250061 C18.12645898 97.46912755 18.18342852 100.48004857 16 104 C13.91943359 104.62988281 13.91943359 104.62988281 12 105 C8.04346667 95.93395147 5.26565513 86.52329678 2.4375 77.0625 C2.05239761 75.78181137 2.05239761 75.78181137 1.65951538 74.47525024 C-3.95452096 55.75191203 -8.82467865 36.84722232 -13.51602173 17.8742981 C-14.25962681 14.87727193 -15.02304298 11.93087106 -16 9 C-16.03954234 6.66700175 -16.04401732 4.33291811 -16 2 C-14.27507022 1.46530198 -12.544802 0.94780825 -10.8125 0.4375 C-9.36810547 0.00244141 -9.36810547 0.00244141 -7.89453125 -0.44140625 C-4.84265101 -1.03036559 -2.98771725 -0.68913449 0 0 Z " fill="#D58B51" transform="translate(481,559)"/>
<path d="M0 0 C5.77353975 0.97788492 10.03300248 4.90304911 14 9 C15.71981204 12.19814362 16.26474698 15.46271566 17 19 C17.38965099 20.37437425 17.79175288 21.74525147 18.203125 23.11328125 C23.73085279 41.56107133 28.29711153 65.292086 21.22265625 84.0625 C19.38991796 87.3346851 17.77508039 88.08247052 14.25 89.375 C12.64125 89.684375 12.64125 89.684375 11 90 C8.68431202 80.85312823 7.21001785 71.80326392 6.125 62.4375 C4.86372081 51.89394416 3.24929304 41.49684455 1.25 31.0625 C-3.35845021 6.71690041 -3.35845021 6.71690041 0 0 Z " fill="#1D140D" transform="translate(267,750)"/>
<path d="M0 0 C0.99 0.33 1.98 0.66 3 1 C6.58278883 19.83047153 -1.9868497 39.27928249 -10 56 C-10.46792969 56.9892749 -10.46792969 56.9892749 -10.9453125 57.99853516 C-25.66821635 88.96301637 -46.25260649 118.30302728 -70 143 C-70.48484863 143.5067627 -70.96969727 144.01352539 -71.46923828 144.53564453 C-77.38736911 150.6944313 -77.38736911 150.6944313 -80 153 C-80.66 153 -81.32 153 -82 153 C-81.46144846 149.16365139 -80.54780035 147.01562159 -78.0625 144.0625 C-74.89166564 140.1559279 -71.91071101 136.16357645 -69 132.0625 C-68.60949463 131.51408447 -68.21898926 130.96566895 -67.81665039 130.40063477 C-66.54026223 128.60333589 -65.26949374 126.8021753 -64 125 C-63.47100098 124.25065186 -62.94200195 123.50130371 -62.39697266 122.72924805 C-37.23737564 86.96065218 -12.50769387 49.96710463 -2 7 C-1.35268451 4.66059949 -0.67853916 2.33063449 0 0 Z " fill="#D58B51" transform="translate(748,400)"/>
<path d="M0 0 C3.75405595 0.04043866 7.4592179 0.3967179 10.25 3.1875 C9.77624204 11.91818246 7.41845515 20.30119461 5.3125 28.75 C4.91350924 30.36676566 4.51491689 31.98362969 4.11669922 33.60058594 C3.27402115 37.01670975 2.42732508 40.43180466 1.57763672 43.84619141 C0.45024264 48.37714162 -0.66872667 52.91012645 -1.78547668 57.44371033 C-2.67846013 61.0656454 -3.57522772 64.68663521 -4.47317505 68.30734253 C-4.90405545 70.0459739 -5.33398353 71.78484159 -5.76290894 73.5239563 C-11.67677063 97.47201375 -11.67677063 97.47201375 -15.75 100.1875 C-16.74 99.5275 -17.73 98.8675 -18.75 98.1875 C-19.10253879 95.26629675 -19.23186565 92.6288373 -19.19921875 89.703125 C-19.19298996 88.82102356 -19.18676117 87.93892212 -19.18034363 87.03009033 C-18.9044961 75.16691424 -16.66642012 63.58524137 -14.5625 51.9375 C-14.16977435 49.67863697 -13.77849322 47.4195223 -13.38867188 45.16015625 C-11.43208827 33.9318789 -9.31095593 22.74134251 -7.01171875 11.578125 C-6.80029739 10.5450824 -6.58887604 9.51203979 -6.37104797 8.44769287 C-6.17343369 7.50621399 -5.9758194 6.56473511 -5.7722168 5.59472656 C-5.5986113 4.76475159 -5.4250058 3.93477661 -5.24613953 3.07965088 C-4.34409472 -0.36052023 -3.87313055 0.19365653 0 0 Z " fill="#D58B51" transform="translate(546.75,561.8125)"/>
<path d="M0 0 C1.9453125 0.58984375 1.9453125 0.58984375 4 2 C4.6171875 4.81640625 4.6171875 4.81640625 4.875 8.5625 C8.73332162 49.16405961 26.49739277 90.25224463 41.890625 127.60546875 C45.18836659 135.62694844 47.80371942 143.61537591 50 152 C46 152 46 152 44.578125 150.59375 C21.75825928 114.61890287 -1.7850926 58.40328484 -1.1875 15.125 C-1.18685547 14.21492188 -1.18621094 13.30484375 -1.18554688 12.3671875 C-1.1576566 8.12786514 -1.07989642 4.12952393 0 0 Z " fill="#D58B51" transform="translate(352,325)"/>
<path d="M0 0 C17.12043426 1.23968188 37.85274276 2.99201982 51 15 C52.07059119 15.90923658 53.14512911 16.8138377 54.22265625 17.71484375 C56.49412095 19.61741616 58.74806986 21.53794409 60.9921875 23.47265625 C63.37630554 25.47593466 65.74449269 27.31064076 68.3125 29.0625 C69.6428125 30.0215625 69.6428125 30.0215625 71 31 C71 31.66 71 32.32 71 33 C72.485 33.495 72.485 33.495 74 34 C70.91112671 34.9612458 68.70309192 34.98827915 65.52734375 34.43359375 C64.1978772 34.20458374 64.1978772 34.20458374 62.84155273 33.97094727 C61.88321533 33.79490967 60.92487793 33.61887207 59.9375 33.4375 C58.93468994 33.25695068 57.93187988 33.07640137 56.89868164 32.89038086 C14.24871109 25.03492755 14.24871109 25.03492755 6 20 C3.69708345 16.28945806 2.42120747 12.51854898 1.3125 8.3125 C1.06113281 7.38050781 0.80976563 6.44851563 0.55078125 5.48828125 C0 3 0 3 0 0 Z " fill="#1D140D" transform="translate(206,605)"/>
<path d="M0 0 C1.40958984 0.02707031 1.40958984 0.02707031 2.84765625 0.0546875 C3.53730469 0.07789063 4.22695313 0.10109375 4.9375 0.125 C4.34495876 4.4811548 3.2898472 8.24573703 1.625 12.3125 C1.01205078 13.84970703 1.01205078 13.84970703 0.38671875 15.41796875 C-1.45857799 18.86484379 -3.48568037 20.50376071 -7.12353516 21.93701172 C-7.85878418 22.14084473 -8.5940332 22.34467773 -9.3515625 22.5546875 C-10.6207251 22.90805176 -10.6207251 22.90805176 -11.91552734 23.26855469 C-12.83027832 23.50993164 -13.7450293 23.75130859 -14.6875 24 C-15.64736816 24.2568457 -16.60723633 24.51369141 -17.59619141 24.77832031 C-34.475521 29.16938248 -51.70760783 32.3685381 -69.0625 34.125 C-65.39751451 31.17002093 -61.68040958 28.29296296 -57.9375 25.4375 C-52.74071776 21.46837417 -47.68001703 17.36746745 -42.6953125 13.1328125 C-36.80873884 8.64364505 -31.27621931 6.32934692 -24.1875 4.5 C-23.43597656 4.29632812 -22.68445313 4.09265625 -21.91015625 3.8828125 C-19.63284334 3.27344575 -17.35059881 2.69245825 -15.0625 2.125 C-14.28302002 1.93083496 -13.50354004 1.73666992 -12.70043945 1.53662109 C-8.39240742 0.51526395 -4.45547116 -0.11279674 0 0 Z " fill="#1D140D" transform="translate(813.0625,605.875)"/>
<path d="M0 0 C7.91217766 3.90334098 14.44751236 10.91345664 20.69921875 17.05078125 C21.25931641 17.59323486 21.81941406 18.13568848 22.39648438 18.69458008 C26.13692425 22.44134604 28.57401155 25.5416645 28.69921875 31.05078125 C25.2152204 41.70771738 11.75739311 55.04149492 2.63671875 61.30078125 C-0.75373937 61.36598237 -2.40528241 60.96147011 -5.17578125 59.05078125 C-6.88263199 56.53542227 -7.43222994 55.40347227 -7.36328125 52.30078125 C-3.96612429 46.03459678 1.68600906 40.91886313 6.5625 35.81640625 C9.10141485 32.90378885 9.10141485 32.90378885 9.63671875 29.30078125 C8.037786 26.97988954 8.037786 26.97988954 5.69921875 24.73828125 C2.29822457 21.12938931 -0.92058356 17.49846925 -3.92578125 13.55078125 C-4.58707031 12.6896875 -5.24835938 11.82859375 -5.9296875 10.94140625 C-7.64295791 7.78562751 -7.80841389 5.84205868 -7.36328125 2.30078125 C-4.74768301 -0.09062286 -3.48453697 -1.03096218 0 0 Z " fill="#D58B51" transform="translate(479.36328125,456.69921875)"/>
<path d="M0 0 C2.79068975 4.18603462 1.92527886 6.55138674 1.0078125 11.359375 C-4.15271873 30.00129402 -16.5536719 44.70977144 -29 59 C-29.6496875 59.7734375 -30.299375 60.546875 -30.96875 61.34375 C-34.31777798 65.30169216 -37.8434248 68.76564755 -41.8046875 72.109375 C-43.34415899 73.43518318 -44.84697125 74.80419492 -46.3203125 76.203125 C-53.98583254 83.47013177 -62.34598184 89.58225189 -71.00634766 95.60839844 C-72.27219622 96.4919812 -73.52845132 97.3895999 -74.77099609 98.30566406 C-76.35546875 99.4453125 -76.35546875 99.4453125 -79 101 C-79.99 100.67 -80.98 100.34 -82 100 C-82 97 -82 97 -80.50474548 95.42462158 C-79.82763016 94.87360779 -79.15051483 94.32259399 -78.45288086 93.75488281 C-74.35466175 90.31828762 -70.53770486 86.69875453 -66.75390625 82.921875 C-66.0984935 82.26979065 -65.44308075 81.6177063 -64.76780701 80.94586182 C-63.39264954 79.57572761 -62.01880745 78.20427202 -60.64624023 76.83154297 C-58.57620785 74.76369339 -56.49830327 72.70398475 -54.41992188 70.64453125 C-47.14468795 63.39970549 -40.3359005 56.08962677 -34 48 C-32.44049815 46.1849197 -30.87866188 44.37183674 -29.3125 42.5625 C-19.49381393 30.78314027 -10.75119615 18.04025376 -3.453125 4.5546875 C-2 2 -2 2 0 0 Z " fill="#D58B51" transform="translate(787,507)"/>
<path d="M0 0 C0.70962891 0.54527344 0.70962891 0.54527344 1.43359375 1.1015625 C17.80323107 13.54631602 35.18975609 21.84785695 55.1015625 27.10546875 C58 28 58 28 61 30 C60.65810369 37.38496038 59.19645292 43.48390179 54.125 49.0625 C51.10741607 50.39378703 49.18802749 49.71192761 46 49 C29.04724467 41.92111449 14.02139535 27.73019951 5 12 C4.49210938 11.14535156 3.98421875 10.29070312 3.4609375 9.41015625 C0 3.44535615 0 3.44535615 0 0 Z " fill="#1D140D" transform="translate(679,222)"/>
<path d="M0 0 C0.495 0.99 0.495 0.99 1 2 C-2.1514275 9.43381084 -6.88059054 15.82516726 -12 22 C-13.2065625 23.546875 -13.2065625 23.546875 -14.4375 25.125 C-21.25155905 32.77004186 -29.55008543 38.33495702 -38 44 C-39.17175781 44.83337891 -39.17175781 44.83337891 -40.3671875 45.68359375 C-43.53244995 47.8574024 -45.83081141 48.96207842 -49.625 49.8125 C-54.05322205 48.74644654 -55.31086361 46.78645361 -57.8359375 43.140625 C-59.82395993 39.48479852 -60.12312781 36.37269104 -60.0625 32.25 C-60.05347656 31.45078125 -60.04445313 30.6515625 -60.03515625 29.828125 C-60.02355469 29.22484375 -60.01195312 28.6215625 -60 28 C-59.23042969 27.77957031 -59.23042969 27.77957031 -58.4453125 27.5546875 C-55.62228148 26.72773902 -52.81096192 25.86717684 -50 25 C-49.02667725 24.70198486 -49.02667725 24.70198486 -48.03369141 24.39794922 C-32.68127227 19.65032829 -17.7462236 14.02939905 -5 4 C-3.96875 3.195625 -2.9375 2.39125 -1.875 1.5625 C-1.25625 1.046875 -0.6375 0.53125 0 0 Z " fill="#1D140D" transform="translate(344,223)"/>
<path d="M0 0 C0.99 0.33 1.98 0.66 3 1 C3.81640625 3.2734375 3.81640625 3.2734375 4.5625 6.375 C7.33199446 15.95370266 12.17367773 24.32185537 17 33 C17.50772949 33.92200195 18.01545898 34.84400391 18.53857422 35.79394531 C25.90828287 49.15992724 33.66112178 62.21643852 42 75 C42.43940918 75.67498535 42.87881836 76.3499707 43.33154297 77.04541016 C48.02040458 84.2233986 52.8623863 91.27218383 57.88574219 98.21972656 C62.67011045 104.86736315 67.2421893 111.66063429 71.82299805 118.44946289 C74.26908296 122.0618205 76.66770078 125.59710046 79.4453125 128.96484375 C81 131 81 131 81 134 C74.9282204 133.14805765 71.70729534 127.43434443 68 123 C67.50790039 122.41202637 67.01580078 121.82405273 66.50878906 121.21826172 C49.69924465 101.0226598 34.08370734 79.813207 21 57 C20.5968457 56.30583984 20.19369141 55.61167969 19.77832031 54.89648438 C-2.16659816 17.01155978 -2.16659816 17.01155978 -1 1 C-0.67 0.67 -0.34 0.34 0 0 Z " fill="#D58B51" transform="translate(271,413)"/>
<path d="M0 0 C0.66 0.33 1.32 0.66 2 1 C3.90585585 7.9626731 4.6237199 14.95388794 5.3359375 22.12109375 C6.95762213 37.50998825 9.2640976 52.77253057 11.625 68.0625 C12.23917013 72.05757665 12.85049608 76.05307699 13.45956421 80.04893494 C13.83402603 82.50360323 14.21113981 84.95786909 14.59146118 87.41163635 C15.95388303 96.31181832 17.1584549 105.10523929 17.0625 114.125 C17.05347656 115.24132812 17.04445313 116.35765625 17.03515625 117.5078125 C17.02355469 118.33023438 17.01195312 119.15265625 17 120 C15.68 120 14.36 120 13 120 C8.65023137 101.50600663 4.61998495 83.01638624 1.625 64.25 C1.50421082 63.49715729 1.38342163 62.74431458 1.25897217 61.96865845 C-0.90076672 48.41322562 -3.00076336 34.77836428 -3.75 21.0625 C-3.80542969 20.30388672 -3.86085938 19.54527344 -3.91796875 18.76367188 C-4.29481494 12.06608733 -3.78454233 5.6768135 0 0 Z " fill="#D58B51" transform="translate(465,286)"/>
<path d="M0 0 C1.11823815 2.23647631 1.19396061 3.64891529 1.31640625 6.1328125 C1.35830078 6.93847656 1.40019531 7.74414062 1.44335938 8.57421875 C1.48267578 9.41597656 1.52199219 10.25773438 1.5625 11.125 C1.60568359 11.97449219 1.64886719 12.82398438 1.69335938 13.69921875 C1.79954236 15.79928223 1.90028497 17.89961948 2 20 C-2.58330765 22.98666359 -7.47216498 25.02301078 -12.5 27.125 C-13.34175781 27.48464844 -14.18351562 27.84429688 -15.05078125 28.21484375 C-15.86933594 28.55902344 -16.68789063 28.90320313 -17.53125 29.2578125 C-18.63823242 29.72405029 -18.63823242 29.72405029 -19.76757812 30.19970703 C-26.0382272 32.44764969 -26.0382272 32.44764969 -29.02050781 31.05957031 C-29.97715332 30.32625488 -29.97715332 30.32625488 -30.953125 29.578125 C-31.654375 29.04703125 -32.355625 28.5159375 -33.078125 27.96875 C-33.79484375 27.4015625 -34.5115625 26.834375 -35.25 26.25 C-35.9821875 25.69828125 -36.714375 25.1465625 -37.46875 24.578125 C-42.85781769 20.42654693 -42.85781769 20.42654693 -44 17 C-34.08543951 10.12050905 -22.59780149 6.4590878 -11.25 2.625 C-10.47543457 2.36211182 -9.70086914 2.09922363 -8.90283203 1.82836914 C-5.82778009 0.81233922 -3.26037049 0 0 0 Z " fill="#1D140D" transform="translate(320,717)"/>
<path d="M0 0 C6.41269291 1.31855772 12.51389892 3.0153742 18.6875 5.1875 C19.55020508 5.48922119 20.41291016 5.79094238 21.30175781 6.10180664 C28.86765549 8.81865172 35.94295656 12.15601442 43 16 C43 19 43 19 40.98828125 21.19140625 C40.10527344 21.97386719 39.22226562 22.75632812 38.3125 23.5625 C37.44238281 24.34753906 36.57226562 25.13257813 35.67578125 25.94140625 C33.14423386 27.88903468 31.01118076 28.99627308 28 30 C28 30.66 28 31.32 28 32 C21.83273136 31.00883183 16.39789196 29.08184173 10.6875 26.625 C9.99398437 26.33294678 9.30046875 26.04089355 8.5859375 25.73999023 C1.1933954 22.47524986 1.1933954 22.47524986 -1 19 C-1.32362449 15.71013683 -1.05561094 12.53410481 -0.75 9.25 C-0.68425781 8.36183594 -0.61851562 7.47367188 -0.55078125 6.55859375 C-0.38606251 4.37018765 -0.20189011 2.18523822 0 0 Z " fill="#1D140D" transform="translate(703,717)"/>
<path d="M0 0 C-1.2517245 3.7551735 -2.73309175 4.51634366 -5.875 6.875 C-25.9317916 22.98789467 -37.63128269 47.08836258 -45.1484375 71.234375 C-45.56996094 72.10835937 -45.56996094 72.10835937 -46 73 C-47.485 73.495 -47.485 73.495 -49 74 C-50.55849229 53.17681131 -39.66752808 31.97451944 -26.7421875 16.25390625 C-11.86855943 -0.71211357 -11.86855943 -0.71211357 0 0 Z " fill="#D58B51" transform="translate(223,238)"/>
<path d="M0 0 C9.21957082 2.4329423 15.54011067 7.04319611 22 14 C22.52078125 14.53882813 23.0415625 15.07765625 23.578125 15.6328125 C36.65754776 29.71381268 47.4590546 51.44707091 48.09765625 70.98828125 C48.06542969 71.65214844 48.03320312 72.31601562 48 73 C47.01 73.33 46.02 73.66 45 74 C44.72027344 73.319375 44.44054687 72.63875 44.15234375 71.9375 C42.7802904 68.61986617 41.39082386 65.30980869 40 62 C39.74299316 61.37931641 39.48598633 60.75863281 39.22119141 60.11914062 C30.70799883 39.61222371 19.8238994 19.66987825 2.0625 5.6875 C0 4 0 4 -1 1 C-0.67 0.67 -0.34 0.34 0 0 Z " fill="#D58B51" transform="translate(802,236)"/>
<path d="M0 0 C1.11117187 -0.01224609 2.22234375 -0.02449219 3.3671875 -0.03710938 C16.94367515 -0.0613531 16.94367515 -0.0613531 21.5625 3.8125 C22.0884375 4.493125 22.0884375 4.493125 22.625 5.1875 C20.875 10.9375 20.875 10.9375 18.625 13.1875 C12.49212479 14.87533617 5.99447757 14.41182274 -0.3125 14.4375 C-1.57513672 14.458125 -2.83777344 14.47875 -4.13867188 14.5 C-5.36005859 14.50515625 -6.58144531 14.5103125 -7.83984375 14.515625 C-9.50454712 14.52964355 -9.50454712 14.52964355 -11.20288086 14.54394531 C-14.85514064 14.13354746 -17.25082967 13.09816383 -20.375 11.1875 C-21.5 8.8125 -21.5 8.8125 -21.375 6.1875 C-19.60892553 3.19875858 -18.49518191 1.49553212 -15.08349609 0.55737305 C-10.07282944 -0.12688511 -5.04911678 0.00290848 0 0 Z " fill="#D58B51" transform="translate(528.375,507.8125)"/>
<path d="M0 0 C4.61513344 0.73030683 6.50252278 3.22485646 9.390625 6.69921875 C11.89226022 10.2755856 13.01569879 13.78058292 14 18 C14.21527344 18.82113281 14.43054688 19.64226562 14.65234375 20.48828125 C16.86034593 30.22946734 16.50524651 40.61915584 13 50 C12.01 50 11.02 50 10 50 C9.89042969 49.25878906 9.78085937 48.51757812 9.66796875 47.75390625 C9.22913631 44.83905986 8.77722139 41.9265843 8.31640625 39.01513672 C8.10413382 37.66321028 7.89584801 36.31065229 7.69140625 34.95751953 C6.27363783 25.64356866 4.26192674 17.01747756 0.98828125 8.171875 C0.06808133 5.21850609 -0.21287522 3.06080046 0 0 Z " fill="#D58B51" transform="translate(856,346)"/>
<path d="M0 0 C0.99 0.33 1.98 0.66 3 1 C2.5625 2.45833333 2.125 3.91666667 1.6875 5.375 C1.27757812 6.75171875 1.27757812 6.75171875 0.859375 8.15625 C0.32279487 9.93184243 -0.22708973 11.70353289 -0.796875 13.46875 C-3.96381887 23.42200216 -5.25983605 33.33210513 -5.48291016 43.74462891 C-5.55859375 45.7265625 -5.55859375 45.7265625 -6 49 C-6.99 49.66 -7.98 50.32 -9 51 C-13.23751951 46.76248049 -13.11886939 38.84161349 -13.25 33.0625 C-12.92929634 21.78442133 -10.98904313 9.7375592 -2.48828125 1.59375 C-1.66714844 1.0678125 -0.84601563 0.541875 0 0 Z " fill="#D58B51" transform="translate(165,346)"/>
<path d="M0 0 C13.70217937 1.85792263 24.25552573 10.80826954 33 21 C36.06539891 25.51604807 36.06539891 25.51604807 35.6875 28.3125 C35.460625 28.869375 35.23375 29.42625 35 30 C30.70948224 29.55203411 28.68251887 26.82182932 25.9375 23.8125 C19.9807918 17.51273025 13.25934399 12.56319429 6.14819336 7.6340332 C5.3516333 7.07288818 4.55507324 6.51174316 3.734375 5.93359375 C3.01475586 5.43915771 2.29513672 4.94472168 1.55371094 4.43530273 C1.04098633 3.96165283 0.52826172 3.48800293 0 3 C0 2.01 0 1.02 0 0 Z " fill="#D58B51" transform="translate(740,182)"/>
<path d="M0 0 C-3.34863169 4.71773371 -7.38896976 7.80858382 -12 11.1875 C-12.7115625 11.72052734 -13.423125 12.25355469 -14.15625 12.80273438 C-17.35264654 15.17319636 -20.3921566 17.29435611 -24 19 C-24 19.66 -24 20.32 -24 21 C-24.66 21 -25.32 21 -26 21 C-26 21.66 -26 22.32 -26 23 C-29.09007389 26.61980085 -31.17965738 28.58682778 -36 29 C-35.63224412 21.64488248 -31.00213413 16.62930151 -25.75 11.875 C-18.92259366 6.33150857 -9.18219459 -0.83474496 0 0 Z " fill="#D58B51" transform="translate(284,182)"/>
<path d="M0 0 C-4.35879481 12.42675635 -9.85284414 24.56145655 -18 35 C-19.58661764 31.82676472 -18.10258245 28.89014332 -17.19921875 25.62109375 C-17.00278275 24.89382584 -16.80634674 24.16655792 -16.60395813 23.41725159 C-16.18624062 21.87883711 -15.76484776 20.34141662 -15.34008789 18.80493164 C-14.68996779 16.44645255 -14.05618963 14.08399733 -13.42382812 11.72070312 C-13.01660472 10.22889888 -12.60843341 8.737353 -12.19921875 7.24609375 C-12.00954025 6.53569443 -11.81986176 5.8252951 -11.62443542 5.09336853 C-11.14369849 3.37739063 -10.57914079 1.68531425 -10 0 C-6.7169902 -1.6415049 -3.57454967 -0.51888624 0 0 Z " fill="#1D140D" transform="translate(848,789)"/>
<path d="M0 0 C2.64 0 5.28 0 8 0 C9.35043086 4.66185973 10.68183724 9.3289266 12 14 C12.19207031 14.67804687 12.38414062 15.35609375 12.58203125 16.0546875 C13.1454271 18.05531766 13.6990446 20.05841225 14.25 22.0625 C14.58515625 23.27035156 14.9203125 24.47820313 15.265625 25.72265625 C15.91671194 28.62830489 16.15656592 31.04202235 16 34 C15.67 33.01 15.34 32.02 15 31 C14.34 31 13.68 31 13 31 C10.91697199 28.22291442 9.28942828 25.13305239 7.5625 22.125 C7.07201172 21.30257812 6.58152344 20.48015625 6.07617188 19.6328125 C2.84583096 14.05273642 0.14565204 8.39623621 -1 2 C-0.67 1.34 -0.34 0.68 0 0 Z " fill="#1D140D" transform="translate(178,789)"/>
<path d="M0 0 C2.2578125 1.4375 2.2578125 1.4375 4.2578125 4.4375 C-17.81391691 20.38096142 -17.81391691 20.38096142 -28.7421875 24.4375 C-29.4021875 24.1075 -30.0621875 23.7775 -30.7421875 23.4375 C-23.56768487 16.55077133 -16.36615645 9.68076667 -8.6171875 3.4375 C-7.09738281 2.2 -7.09738281 2.2 -5.546875 0.9375 C-2.7421875 -0.5625 -2.7421875 -0.5625 0 0 Z " fill="#1D140D" transform="translate(731.7421875,848.5625)"/>
<path d="M0 0 C2.92040802 1.49943337 4.9248957 3.21089795 7.3046875 5.46875 C11.58572478 9.45410002 16.02420679 13.08448538 20.68359375 16.6171875 C22.6171875 18.34375 22.6171875 18.34375 23.6171875 21.34375 C24.6071875 21.67375 25.5971875 22.00375 26.6171875 22.34375 C25.6271875 22.83875 25.6271875 22.83875 24.6171875 23.34375 C22.77832031 22.54101562 22.77832031 22.54101562 20.5703125 21.25 C19.76529297 20.78335938 18.96027344 20.31671875 18.13085938 19.8359375 C17.30134766 19.34351563 16.47183594 18.85109375 15.6171875 18.34375 C14.84439453 17.89257812 14.07160156 17.44140625 13.27539062 16.9765625 C10.96179589 15.61631819 8.66337872 14.23314028 6.3671875 12.84375 C5.20316406 12.15345703 5.20316406 12.15345703 4.015625 11.44921875 C-0.36719952 8.79409468 -3.9389955 6.14572397 -7.3828125 2.34375 C-3.08428444 -0.84944227 -3.08428444 -0.84944227 0 0 Z " fill="#1E140D" transform="translate(295.3828125,848.65625)"/>
<path d="M0 0 C2.31 0.33 4.62 0.66 7 1 C6.67 11.56 6.34 22.12 6 33 C5.34 33 4.68 33 4 33 C1.33003573 21.81952463 -0.67861977 11.55538668 0 0 Z " fill="#1E140D" transform="translate(112,698)"/>
<path d="M0 0 C1.2065625 0.0309375 1.2065625 0.0309375 2.4375 0.0625 C3.34337192 12.98627269 0.64864289 24.59882465 -2.5625 37.0625 C-2.8925 37.0625 -3.2225 37.0625 -3.5625 37.0625 C-3.5871501 31.95386104 -3.60533607 26.84525641 -3.61743164 21.73657227 C-3.62247204 19.99730832 -3.6293043 18.25804864 -3.63793945 16.51879883 C-3.65001792 14.02424063 -3.65573108 11.52973827 -3.66015625 9.03515625 C-3.66531754 8.25286148 -3.67047882 7.47056671 -3.67579651 6.66456604 C-3.67599226 4.79682886 -3.62449694 2.92920796 -3.5625 1.0625 C-2.5625 0.0625 -2.5625 0.0625 0 0 Z " fill="#1D140D" transform="translate(909.5625,697.9375)"/>
<path d="M0 0 C4.73127546 1.33067122 7.69672104 4.19143943 11.23046875 7.44140625 C12.92814506 9.07056716 12.92814506 9.07056716 15 10 C15 10.66 15 11.32 15 12 C15.73476563 12.25136719 16.46953125 12.50273438 17.2265625 12.76171875 C20.20553376 14.09176648 22.0116159 15.58136303 24.375 17.8125 C28.07987322 21.21949397 31.84228048 24.16921224 36 27 C35.67 27.66 35.34 28.32 35 29 C25.17402611 21.3835705 15.36000698 13.74845817 5.6875 5.9375 C4.80449219 5.22464844 3.92148437 4.51179687 3.01171875 3.77734375 C1 2 1 2 0 0 Z " fill="#1D140D" transform="translate(368,690)"/>
<path d="M0 0 C0.66 0.33 1.32 0.66 2 1 C0.625 2.5 0.625 2.5 -1 4 C-1.66 4 -2.32 4 -3 4 C-3 4.66 -3 5.32 -3 6 C-4.50423899 7.39873124 -6.08265149 8.71795269 -7.6875 10 C-8.6775 10.79277344 -9.6675 11.58554687 -10.6875 12.40234375 C-16.08624627 16.65190037 -21.53398665 20.83748745 -27 25 C-27.66 24.67 -28.32 24.34 -29 24 C-22.87409129 18.26712526 -16.54318823 13.05636102 -9.78515625 8.0859375 C-6.37851391 5.53453917 -3.1839162 2.82210754 0 0 Z " fill="#1D140D" transform="translate(756,609)"/>
<path d="M0 0 C0 0.66 0 1.32 0 2 C-1.82045271 3.52588107 -3.70860437 4.97150831 -5.625 6.375 C-6.66914062 7.14585937 -7.71328125 7.91671875 -8.7890625 8.7109375 C-11.82288036 10.87373223 -14.88766383 12.95314829 -18 15 C-16.68313741 11.99851686 -15.39104261 10.21668946 -12.8125 8.203125 C-12.19632813 7.71972656 -11.58015625 7.23632812 -10.9453125 6.73828125 C-10.30335938 6.24714844 -9.66140625 5.75601563 -9 5.25 C-8.03707031 4.49009766 -8.03707031 4.49009766 -7.0546875 3.71484375 C-2.26844677 0 -2.26844677 0 0 0 Z " fill="#1D140D" transform="translate(641,699)"/>
<path d="" fill="#D58B51" transform="translate(0,0)"/>
<path d="" fill="#D58B51" transform="translate(0,0)"/>
<path d="" fill="#D58B51" transform="translate(0,0)"/>
<path d="" fill="#D58B51" transform="translate(0,0)"/>
<path d="" fill="#D58B51" transform="translate(0,0)"/>
<path d="" fill="#D58B51" transform="translate(0,0)"/>
<path d="" fill="#D58B51" transform="translate(0,0)"/>
<path d="" fill="#D58B51" transform="translate(0,0)"/>
</svg>
